G75*
G70*
%OFA0B0*%
%FSLAX24Y24*%
%IPPOS*%
%LPD*%
%AMOC8*
5,1,8,0,0,1.08239X$1,22.5*
%
%ADD10C,0.0000*%
%ADD11C,0.0160*%
%ADD12OC8,0.0680*%
%ADD13OC8,0.0740*%
%ADD14C,0.0740*%
%ADD15R,0.0740X0.0740*%
%ADD16OC8,0.0560*%
%ADD17C,0.0680*%
%ADD18R,0.0634X0.0634*%
%ADD19C,0.0634*%
%ADD20OC8,0.0630*%
%ADD21C,0.0630*%
%ADD22C,0.1660*%
%ADD23C,0.0100*%
%ADD24C,0.0080*%
%ADD25C,0.0250*%
D10*
X001260Y008952D02*
X001262Y008999D01*
X001268Y009045D01*
X001278Y009091D01*
X001291Y009136D01*
X001309Y009179D01*
X001330Y009221D01*
X001354Y009261D01*
X001382Y009298D01*
X001413Y009333D01*
X001447Y009366D01*
X001483Y009395D01*
X001522Y009421D01*
X001563Y009444D01*
X001606Y009463D01*
X001650Y009479D01*
X001695Y009491D01*
X001741Y009499D01*
X001788Y009503D01*
X001834Y009503D01*
X001881Y009499D01*
X001927Y009491D01*
X001972Y009479D01*
X002016Y009463D01*
X002059Y009444D01*
X002100Y009421D01*
X002139Y009395D01*
X002175Y009366D01*
X002209Y009333D01*
X002240Y009298D01*
X002268Y009261D01*
X002292Y009221D01*
X002313Y009179D01*
X002331Y009136D01*
X002344Y009091D01*
X002354Y009045D01*
X002360Y008999D01*
X002362Y008952D01*
X002360Y008905D01*
X002354Y008859D01*
X002344Y008813D01*
X002331Y008768D01*
X002313Y008725D01*
X002292Y008683D01*
X002268Y008643D01*
X002240Y008606D01*
X002209Y008571D01*
X002175Y008538D01*
X002139Y008509D01*
X002100Y008483D01*
X002059Y008460D01*
X002016Y008441D01*
X001972Y008425D01*
X001927Y008413D01*
X001881Y008405D01*
X001834Y008401D01*
X001788Y008401D01*
X001741Y008405D01*
X001695Y008413D01*
X001650Y008425D01*
X001606Y008441D01*
X001563Y008460D01*
X001522Y008483D01*
X001483Y008509D01*
X001447Y008538D01*
X001413Y008571D01*
X001382Y008606D01*
X001354Y008643D01*
X001330Y008683D01*
X001309Y008725D01*
X001291Y008768D01*
X001278Y008813D01*
X001268Y008859D01*
X001262Y008905D01*
X001260Y008952D01*
X003384Y022789D02*
X003386Y022836D01*
X003392Y022882D01*
X003402Y022928D01*
X003415Y022973D01*
X003433Y023016D01*
X003454Y023058D01*
X003478Y023098D01*
X003506Y023135D01*
X003537Y023170D01*
X003571Y023203D01*
X003607Y023232D01*
X003646Y023258D01*
X003687Y023281D01*
X003730Y023300D01*
X003774Y023316D01*
X003819Y023328D01*
X003865Y023336D01*
X003912Y023340D01*
X003958Y023340D01*
X004005Y023336D01*
X004051Y023328D01*
X004096Y023316D01*
X004140Y023300D01*
X004183Y023281D01*
X004224Y023258D01*
X004263Y023232D01*
X004299Y023203D01*
X004333Y023170D01*
X004364Y023135D01*
X004392Y023098D01*
X004416Y023058D01*
X004437Y023016D01*
X004455Y022973D01*
X004468Y022928D01*
X004478Y022882D01*
X004484Y022836D01*
X004486Y022789D01*
X004484Y022742D01*
X004478Y022696D01*
X004468Y022650D01*
X004455Y022605D01*
X004437Y022562D01*
X004416Y022520D01*
X004392Y022480D01*
X004364Y022443D01*
X004333Y022408D01*
X004299Y022375D01*
X004263Y022346D01*
X004224Y022320D01*
X004183Y022297D01*
X004140Y022278D01*
X004096Y022262D01*
X004051Y022250D01*
X004005Y022242D01*
X003958Y022238D01*
X003912Y022238D01*
X003865Y022242D01*
X003819Y022250D01*
X003774Y022262D01*
X003730Y022278D01*
X003687Y022297D01*
X003646Y022320D01*
X003607Y022346D01*
X003571Y022375D01*
X003537Y022408D01*
X003506Y022443D01*
X003478Y022480D01*
X003454Y022520D01*
X003433Y022562D01*
X003415Y022605D01*
X003402Y022650D01*
X003392Y022696D01*
X003386Y022742D01*
X003384Y022789D01*
X011966Y022799D02*
X011968Y022846D01*
X011974Y022892D01*
X011984Y022938D01*
X011997Y022983D01*
X012015Y023026D01*
X012036Y023068D01*
X012060Y023108D01*
X012088Y023145D01*
X012119Y023180D01*
X012153Y023213D01*
X012189Y023242D01*
X012228Y023268D01*
X012269Y023291D01*
X012312Y023310D01*
X012356Y023326D01*
X012401Y023338D01*
X012447Y023346D01*
X012494Y023350D01*
X012540Y023350D01*
X012587Y023346D01*
X012633Y023338D01*
X012678Y023326D01*
X012722Y023310D01*
X012765Y023291D01*
X012806Y023268D01*
X012845Y023242D01*
X012881Y023213D01*
X012915Y023180D01*
X012946Y023145D01*
X012974Y023108D01*
X012998Y023068D01*
X013019Y023026D01*
X013037Y022983D01*
X013050Y022938D01*
X013060Y022892D01*
X013066Y022846D01*
X013068Y022799D01*
X013066Y022752D01*
X013060Y022706D01*
X013050Y022660D01*
X013037Y022615D01*
X013019Y022572D01*
X012998Y022530D01*
X012974Y022490D01*
X012946Y022453D01*
X012915Y022418D01*
X012881Y022385D01*
X012845Y022356D01*
X012806Y022330D01*
X012765Y022307D01*
X012722Y022288D01*
X012678Y022272D01*
X012633Y022260D01*
X012587Y022252D01*
X012540Y022248D01*
X012494Y022248D01*
X012447Y022252D01*
X012401Y022260D01*
X012356Y022272D01*
X012312Y022288D01*
X012269Y022307D01*
X012228Y022330D01*
X012189Y022356D01*
X012153Y022385D01*
X012119Y022418D01*
X012088Y022453D01*
X012060Y022490D01*
X012036Y022530D01*
X012015Y022572D01*
X011997Y022615D01*
X011984Y022660D01*
X011974Y022706D01*
X011968Y022752D01*
X011966Y022799D01*
X014719Y008956D02*
X014721Y009003D01*
X014727Y009049D01*
X014737Y009095D01*
X014750Y009140D01*
X014768Y009183D01*
X014789Y009225D01*
X014813Y009265D01*
X014841Y009302D01*
X014872Y009337D01*
X014906Y009370D01*
X014942Y009399D01*
X014981Y009425D01*
X015022Y009448D01*
X015065Y009467D01*
X015109Y009483D01*
X015154Y009495D01*
X015200Y009503D01*
X015247Y009507D01*
X015293Y009507D01*
X015340Y009503D01*
X015386Y009495D01*
X015431Y009483D01*
X015475Y009467D01*
X015518Y009448D01*
X015559Y009425D01*
X015598Y009399D01*
X015634Y009370D01*
X015668Y009337D01*
X015699Y009302D01*
X015727Y009265D01*
X015751Y009225D01*
X015772Y009183D01*
X015790Y009140D01*
X015803Y009095D01*
X015813Y009049D01*
X015819Y009003D01*
X015821Y008956D01*
X015819Y008909D01*
X015813Y008863D01*
X015803Y008817D01*
X015790Y008772D01*
X015772Y008729D01*
X015751Y008687D01*
X015727Y008647D01*
X015699Y008610D01*
X015668Y008575D01*
X015634Y008542D01*
X015598Y008513D01*
X015559Y008487D01*
X015518Y008464D01*
X015475Y008445D01*
X015431Y008429D01*
X015386Y008417D01*
X015340Y008409D01*
X015293Y008405D01*
X015247Y008405D01*
X015200Y008409D01*
X015154Y008417D01*
X015109Y008429D01*
X015065Y008445D01*
X015022Y008464D01*
X014981Y008487D01*
X014942Y008513D01*
X014906Y008542D01*
X014872Y008575D01*
X014841Y008610D01*
X014813Y008647D01*
X014789Y008687D01*
X014768Y008729D01*
X014750Y008772D01*
X014737Y008817D01*
X014727Y008863D01*
X014721Y008909D01*
X014719Y008956D01*
D11*
X000199Y008325D02*
X000199Y002083D01*
X000180Y002065D02*
X000182Y001984D01*
X000188Y001903D01*
X000198Y001822D01*
X000212Y001742D01*
X000230Y001662D01*
X000251Y001584D01*
X000277Y001507D01*
X000306Y001431D01*
X000339Y001357D01*
X000376Y001284D01*
X000416Y001213D01*
X000459Y001144D01*
X000506Y001078D01*
X000556Y001014D01*
X000609Y000952D01*
X000665Y000893D01*
X000724Y000837D01*
X000786Y000784D01*
X000850Y000734D01*
X000916Y000687D01*
X000985Y000644D01*
X001056Y000604D01*
X001129Y000567D01*
X001203Y000534D01*
X001279Y000505D01*
X001356Y000479D01*
X001434Y000458D01*
X001514Y000440D01*
X001594Y000426D01*
X001675Y000416D01*
X001756Y000410D01*
X001837Y000408D01*
X015959Y000408D01*
X016029Y000410D01*
X016098Y000416D01*
X016167Y000425D01*
X016235Y000438D01*
X016303Y000455D01*
X016369Y000475D01*
X016434Y000499D01*
X016498Y000527D01*
X016560Y000558D01*
X016621Y000592D01*
X016680Y000629D01*
X016736Y000670D01*
X016790Y000713D01*
X016842Y000760D01*
X016891Y000809D01*
X016938Y000861D01*
X016981Y000915D01*
X017022Y000971D01*
X017059Y001030D01*
X017093Y001091D01*
X017124Y001153D01*
X017152Y001217D01*
X017176Y001282D01*
X017196Y001348D01*
X017213Y001416D01*
X017226Y001484D01*
X017235Y001553D01*
X017241Y001622D01*
X017243Y001692D01*
X017258Y001692D02*
X017258Y007763D01*
X017267Y007743D02*
X017267Y020457D01*
X017263Y020620D01*
X017251Y020783D01*
X017232Y020944D01*
X017205Y021105D01*
X017170Y021264D01*
X017128Y021422D01*
X017079Y021577D01*
X017022Y021730D01*
X016957Y021880D01*
X016886Y022026D01*
X016808Y022169D01*
X016723Y022309D01*
X016632Y022444D01*
X016534Y022574D01*
X016430Y022700D01*
X016321Y022821D01*
X016206Y022936D01*
X016085Y023045D01*
X015959Y023149D01*
X015829Y023247D01*
X015694Y023338D01*
X015554Y023423D01*
X015411Y023501D01*
X015265Y023572D01*
X015115Y023637D01*
X014962Y023694D01*
X014807Y023743D01*
X014649Y023785D01*
X014490Y023820D01*
X014329Y023847D01*
X014168Y023866D01*
X014005Y023878D01*
X013842Y023882D01*
X003731Y023882D01*
X003563Y023878D01*
X003395Y023866D01*
X003228Y023846D01*
X003062Y023818D01*
X002897Y023782D01*
X002735Y023739D01*
X002574Y023688D01*
X002417Y023629D01*
X002262Y023562D01*
X002111Y023489D01*
X001963Y023408D01*
X001819Y023321D01*
X001680Y023226D01*
X001545Y023125D01*
X001415Y023018D01*
X001291Y022905D01*
X001172Y022786D01*
X001059Y022662D01*
X000952Y022532D01*
X000851Y022397D01*
X000756Y022258D01*
X000669Y022114D01*
X000588Y021966D01*
X000515Y021815D01*
X000448Y021660D01*
X000389Y021503D01*
X000338Y021342D01*
X000295Y021180D01*
X000259Y021015D01*
X000231Y020849D01*
X000211Y020682D01*
X000199Y020514D01*
X000195Y020346D01*
X000195Y008279D01*
X002157Y005245D02*
X003327Y005245D01*
X003327Y009689D01*
X005107Y009689D01*
X006002Y009689D01*
X006002Y008742D01*
X007055Y008742D01*
X007055Y008784D01*
X006877Y010635D02*
X006157Y011355D01*
X006157Y017236D01*
X006157Y017745D01*
X006157Y019580D01*
X006095Y019580D01*
X006657Y018245D02*
X006157Y017745D01*
X005207Y018245D02*
X005207Y018252D01*
X002964Y018252D01*
X002864Y017252D02*
X005107Y017252D01*
X005107Y017245D01*
X005207Y016252D02*
X005207Y016245D01*
X005207Y016252D02*
X002964Y016252D01*
X002864Y015252D02*
X005107Y015252D01*
X005107Y015245D01*
X005107Y009689D01*
X010157Y016745D02*
X009657Y017245D01*
X010157Y016745D02*
X010607Y016745D01*
X011107Y017245D01*
X011107Y017232D01*
X013352Y017232D01*
X013452Y016232D02*
X011207Y016232D01*
X011207Y016245D01*
X011107Y015245D02*
X013352Y015245D01*
X013352Y015232D01*
X013452Y018232D02*
X011207Y018232D01*
X011207Y018245D01*
X013532Y004456D02*
X013542Y004456D01*
X013542Y003263D01*
X016204Y003263D01*
X016204Y002473D01*
D12*
X009657Y015245D03*
X009657Y016245D03*
X009657Y017245D03*
X009657Y018245D03*
X006657Y018245D03*
X006657Y017245D03*
X006657Y016245D03*
X006657Y015245D03*
D13*
X007157Y013245D03*
X007157Y012245D03*
X008157Y012145D03*
X008157Y013145D03*
X009157Y013245D03*
X009157Y012245D03*
D14*
X009437Y010635D03*
X009437Y008855D03*
X006877Y008855D03*
X006877Y010635D03*
X005107Y015245D03*
X005207Y016245D03*
X005107Y017245D03*
X006095Y019580D03*
X002864Y017252D03*
X002964Y016252D03*
X002864Y015252D03*
X010095Y019580D03*
X011107Y017245D03*
X011207Y016245D03*
X011107Y015245D03*
X013352Y015232D03*
X013452Y016232D03*
X013352Y017232D03*
D15*
X013452Y018232D03*
X011207Y018245D03*
X005207Y018245D03*
X002964Y018252D03*
D16*
X002351Y007288D03*
X002351Y005288D03*
X002337Y004058D03*
X002337Y002058D03*
X013187Y001659D03*
X014187Y001659D03*
X015204Y002473D03*
X016204Y002473D03*
D17*
X011640Y002189D03*
X011640Y006189D03*
D18*
X004837Y002890D03*
D19*
X004837Y003890D03*
X004837Y004890D03*
D20*
X013799Y006659D03*
X014532Y004456D03*
D21*
X013532Y004456D03*
X012799Y006659D03*
D22*
X010132Y004833D03*
X008202Y005994D03*
X008202Y003632D03*
D23*
X008157Y012145D02*
X008157Y012245D01*
X008657Y012745D01*
X010157Y012745D01*
X010157Y016745D01*
X009157Y015245D02*
X006657Y015245D01*
X009157Y015245D02*
X009157Y013245D01*
D24*
X009437Y008855D02*
X009157Y008745D01*
X007157Y008745D01*
X007055Y008784D01*
X006877Y008855D01*
X006657Y008745D01*
X002351Y005288D02*
X002157Y005245D01*
X002157Y004245D01*
X002337Y004058D01*
X013657Y006745D02*
X013799Y006659D01*
X013657Y006745D02*
X014657Y005745D01*
X014657Y004745D01*
X014532Y004456D01*
D25*
X012799Y006659D02*
X012657Y006745D01*
X012657Y003245D01*
X011657Y002245D01*
X011640Y002189D01*
X011640Y006189D02*
X011657Y006245D01*
X008657Y006245D01*
X008202Y005994D01*
M02*
