%
M48
M72
T01C0.0315
T02C0.0320
T03C0.0354
T04C0.0360
T05C0.0394
T06C0.0400
T07C0.0440
T08C0.1102
T09C0.1260
%
T01
X7144Y22907
X8144Y22907
X9144Y22907
T02
X2337Y2058
X2337Y4058
X2351Y5288
X2351Y7288
X6657Y15245
X6657Y16245
X6657Y17245
X6657Y18245
X9657Y18245
X9657Y17245
X9657Y16245
X9657Y15245
X12799Y6659
X13799Y6659
X13532Y4456
X14532Y4456
X15204Y2473
X16204Y2473
X14187Y1659
X13187Y1659
T03
X10095Y19580
X6095Y19580
T04
X4962Y20108
X3962Y20108
X2962Y20108
X11378Y20064
X12378Y20064
X13378Y20064
T05
X4837Y4890
X4837Y3890
X4837Y2890
T06
X6877Y8855
X6877Y10635
X7157Y12245
X7157Y13245
X8157Y13145
X8157Y12145
X9157Y12245
X9157Y13245
X9437Y10635
X9437Y8855
X11107Y15245
X11207Y16245
X11107Y17245
X11207Y18245
X13352Y17232
X13452Y16232
X13352Y15232
X13452Y18232
X5207Y18245
X5107Y17245
X5207Y16245
X5107Y15245
X2864Y15252
X2964Y16252
X2864Y17252
X2964Y18252
T07
X11640Y6189
X11640Y2189
T08
X15270Y8956
X12517Y22799
X3935Y22789
X1811Y8952
T09
X8202Y5994
X8202Y3632
X10132Y4833
M30
