G75*
G70*
%OFA0B0*%
%FSLAX24Y24*%
%IPPOS*%
%LPD*%
%AMOC8*
5,1,8,0,0,1.08239X$1,22.5*
%
%ADD10OC8,0.0680*%
%ADD11OC8,0.0740*%
%ADD12C,0.0740*%
%ADD13R,0.0740X0.0740*%
%ADD14OC8,0.0480*%
%ADD15C,0.0660*%
%ADD16R,0.0591X0.0591*%
%ADD17C,0.0591*%
%ADD18OC8,0.0630*%
%ADD19C,0.0630*%
%ADD20C,0.1660*%
%ADD21C,0.0540*%
%ADD22C,0.0100*%
%ADD23C,0.0160*%
%ADD24C,0.0080*%
%ADD25C,0.0250*%
D10*
X006657Y015245D03*
X006657Y016245D03*
X006657Y017245D03*
X006657Y018245D03*
X009657Y018245D03*
X009657Y017245D03*
X009657Y016245D03*
X009657Y015245D03*
D11*
X009157Y013245D03*
X009157Y012245D03*
X008157Y012145D03*
X008157Y013145D03*
X007157Y013245D03*
X007157Y012245D03*
D12*
X006877Y010635D03*
X006877Y008855D03*
X009437Y008855D03*
X009437Y010635D03*
X011107Y015245D03*
X011207Y016245D03*
X011107Y017245D03*
X010095Y019580D03*
X009144Y022907D03*
X008144Y022907D03*
X007144Y022907D03*
X006095Y019580D03*
X005107Y017245D03*
X005207Y016245D03*
X005107Y015245D03*
X002864Y015252D03*
X002964Y016252D03*
X002864Y017252D03*
X013352Y017232D03*
X013452Y016232D03*
X013352Y015232D03*
D13*
X013452Y018232D03*
X011207Y018245D03*
X005207Y018245D03*
X002964Y018252D03*
D14*
X002351Y007288D03*
X002351Y005288D03*
X002337Y004058D03*
X002337Y002058D03*
X013187Y001659D03*
X014187Y001659D03*
X015204Y002473D03*
X016204Y002473D03*
D15*
X011640Y002189D03*
X011640Y006189D03*
D16*
X004837Y002890D03*
D17*
X004837Y003890D03*
X004837Y004890D03*
D18*
X013799Y006659D03*
X014532Y004456D03*
D19*
X013532Y004456D03*
X012799Y006659D03*
D20*
X010132Y004833D03*
X008202Y005994D03*
X008202Y003632D03*
D21*
X011378Y019794D02*
X011378Y020334D01*
X012378Y020334D02*
X012378Y019794D01*
X013378Y019794D02*
X013378Y020334D01*
X004962Y020378D02*
X004962Y019838D01*
X003962Y019838D02*
X003962Y020378D01*
X002962Y020378D02*
X002962Y019838D01*
D22*
X006618Y014116D02*
X008078Y014156D01*
X009657Y016245D01*
X009657Y015245D02*
X010157Y014745D01*
X009657Y014745D01*
X008157Y013245D01*
X008157Y013145D01*
X007657Y013245D02*
X007157Y013245D01*
X007657Y013245D02*
X007657Y011745D01*
X006157Y011745D01*
X006157Y009745D01*
X006877Y010635D02*
X007157Y010745D01*
X007657Y011245D01*
X008157Y011245D01*
X009157Y012245D01*
X007157Y012245D02*
X006657Y012745D01*
X006618Y014116D01*
D23*
X007186Y014606D02*
X004302Y014606D01*
X004302Y017245D01*
X005107Y017245D01*
X005207Y018245D02*
X006657Y018245D01*
X006657Y017245D02*
X007382Y017245D01*
X007382Y020987D01*
X007695Y020987D01*
X007695Y020967D01*
X013378Y020967D01*
X013378Y020064D01*
X012091Y018201D02*
X011250Y018201D01*
X011207Y018245D01*
X009657Y018245D01*
X010095Y018245D01*
X010095Y019580D01*
X011378Y020064D02*
X011378Y020123D01*
X008068Y020123D01*
X008068Y015488D01*
X008066Y015430D01*
X008060Y015373D01*
X008051Y015316D01*
X008038Y015260D01*
X008021Y015204D01*
X008001Y015150D01*
X007977Y015098D01*
X007950Y015047D01*
X007919Y014998D01*
X007886Y014951D01*
X007849Y014906D01*
X007810Y014864D01*
X007768Y014825D01*
X007723Y014788D01*
X007676Y014755D01*
X007627Y014724D01*
X007576Y014697D01*
X007524Y014673D01*
X007470Y014653D01*
X007414Y014636D01*
X007358Y014623D01*
X007301Y014614D01*
X007244Y014608D01*
X007186Y014606D01*
X006657Y015245D02*
X005107Y015245D01*
X006157Y009745D02*
X007157Y009745D01*
X012492Y009745D01*
X012633Y009885D01*
X012633Y017659D01*
X012091Y018201D01*
X011207Y016245D02*
X009657Y016245D01*
X010157Y014745D02*
X011107Y014745D01*
X011107Y015245D01*
X012966Y003745D02*
X012966Y001745D01*
X013157Y001745D01*
X014187Y001659D02*
X015204Y001659D01*
X015204Y002473D01*
D24*
X014157Y003745D02*
X012966Y003745D01*
X008657Y003745D01*
X008202Y003632D01*
X008157Y003745D01*
X005157Y003745D01*
X004157Y004745D01*
X002657Y004745D01*
X002157Y004245D01*
X002337Y004058D01*
X002157Y004245D02*
X004157Y004245D01*
X004657Y003745D01*
X004837Y003890D01*
X004657Y004745D02*
X004837Y004890D01*
X004657Y004745D02*
X002157Y007245D01*
X002351Y007288D01*
X002157Y007245D02*
X004657Y009745D01*
X006157Y009745D01*
X007157Y009745D02*
X011657Y005245D01*
X013157Y005245D01*
X013657Y004745D01*
X013532Y004456D01*
X014157Y003745D02*
X014657Y004245D01*
X014532Y004456D01*
X013157Y001745D02*
X013187Y001659D01*
X009437Y010635D02*
X009157Y010745D01*
X008657Y011245D01*
X008157Y011245D01*
D25*
X002157Y002245D02*
X002337Y002058D01*
X002157Y002245D02*
X002657Y002745D01*
X004657Y002745D01*
X004837Y002890D01*
X004657Y002745D02*
X005157Y002245D01*
X011657Y002245D01*
X011640Y002189D01*
X011640Y006189D02*
X011657Y006245D01*
M02*
