G75*
G70*
%OFA0B0*%
%FSLAX24Y24*%
%IPPOS*%
%LPD*%
%AMOC8*
5,1,8,0,0,1.08239X$1,22.5*
%
%ADD10OC8,0.0680*%
%ADD11OC8,0.0740*%
%ADD12C,0.0650*%
%ADD13R,0.0650X0.0650*%
%ADD14C,0.0740*%
%ADD15R,0.0740X0.0740*%
%ADD16C,0.0100*%
%ADD17C,0.0160*%
D10*
X003992Y008926D03*
X003992Y009926D03*
X003992Y010926D03*
X003992Y011926D03*
X006992Y011926D03*
X006992Y010926D03*
X006992Y009926D03*
X006992Y008926D03*
D11*
X006492Y006926D03*
X006492Y005926D03*
X005492Y005826D03*
X005492Y006826D03*
X004492Y006926D03*
X004492Y005926D03*
D12*
X002492Y004426D03*
X004508Y014426D03*
X006477Y014426D03*
D13*
X002492Y005426D03*
D14*
X004212Y004316D03*
X004212Y002536D03*
X004486Y000930D03*
X003486Y000930D03*
X005486Y000930D03*
X006486Y000930D03*
X007486Y000930D03*
X008486Y000930D03*
X006772Y002536D03*
X006772Y004316D03*
X007992Y004926D03*
X008992Y004926D03*
X008442Y008926D03*
X008542Y009926D03*
X008442Y010926D03*
X007492Y013426D03*
X007492Y015426D03*
X003492Y015426D03*
X003492Y013426D03*
X002442Y010926D03*
X002542Y009926D03*
X002442Y008926D03*
D15*
X002542Y011926D03*
X008542Y011926D03*
D16*
X007492Y010426D02*
X007492Y006426D01*
X005992Y006426D01*
X005492Y005926D01*
X005492Y005826D01*
X006492Y006926D02*
X006492Y008926D01*
X003992Y008926D01*
X006492Y008926D02*
X006492Y014426D01*
X006477Y014426D01*
X007492Y015426D02*
X009992Y012926D01*
X010007Y003747D01*
X007007Y003747D01*
X006772Y004316D01*
X006992Y011926D02*
X006992Y015926D01*
X005992Y015926D01*
X004492Y014426D01*
X004508Y014426D01*
X004492Y014426D02*
X003492Y015426D01*
D17*
X002492Y003926D02*
X003882Y002536D01*
X004212Y002536D01*
X005014Y001735D01*
X008489Y001735D01*
X008486Y001732D01*
X008486Y000930D01*
X008992Y004926D02*
X009492Y005426D01*
X009492Y010976D01*
X008542Y011926D01*
X008442Y010926D02*
X007942Y010426D01*
X007492Y010426D01*
X006992Y010926D01*
X003992Y011926D02*
X003492Y011426D01*
X003492Y005036D01*
X004212Y004316D01*
X002492Y004426D02*
X002492Y003926D01*
X002492Y004426D02*
X001992Y004926D01*
X001992Y007926D01*
X002442Y008376D01*
X002442Y008926D01*
M02*
