G75*
G70*
%OFA0B0*%
%FSLAX24Y24*%
%IPPOS*%
%LPD*%
%AMOC8*
5,1,8,0,0,1.08239X$1,22.5*
%
%ADD10C,0.1182*%
%ADD11OC8,0.0760*%
%ADD12OC8,0.0820*%
%ADD13C,0.0730*%
%ADD14R,0.0730X0.0730*%
%ADD15C,0.0820*%
%ADD16R,0.0820X0.0820*%
D10*
X002200Y001523D03*
X009200Y001523D03*
X008200Y016523D03*
X003200Y016523D03*
D11*
X003700Y011523D03*
X003700Y010523D03*
X003700Y009523D03*
X003700Y008523D03*
X006700Y008523D03*
X006700Y009523D03*
X006700Y010523D03*
X006700Y011523D03*
D12*
X006200Y006523D03*
X006200Y005523D03*
X005200Y005423D03*
X005200Y006423D03*
X004200Y006523D03*
X004200Y005523D03*
D13*
X002200Y004023D03*
X004216Y014023D03*
X006184Y014023D03*
D14*
X002200Y005023D03*
D15*
X003920Y003913D03*
X003920Y002133D03*
X006480Y002133D03*
X006480Y003913D03*
X007700Y004523D03*
X008700Y004523D03*
X008150Y008523D03*
X008250Y009523D03*
X008150Y010523D03*
X007200Y013023D03*
X007200Y015023D03*
X003200Y015023D03*
X003200Y013023D03*
X002150Y010523D03*
X002250Y009523D03*
X002150Y008523D03*
D16*
X002250Y011523D03*
X008250Y011523D03*
M02*
