G75*
G70*
%OFA0B0*%
%FSLAX24Y24*%
%IPPOS*%
%LPD*%
%AMOC8*
5,1,8,0,0,1.08239X$1,22.5*
%
%ADD10C,0.0160*%
%ADD11C,0.0000*%
D10*
X000200Y003023D02*
X000200Y014902D01*
X002347Y017512D02*
X008990Y017512D01*
X008989Y017512D02*
X009106Y017497D01*
X009223Y017476D01*
X009338Y017450D01*
X009451Y017418D01*
X009564Y017381D01*
X009674Y017339D01*
X009782Y017292D01*
X009888Y017239D01*
X009991Y017182D01*
X010091Y017119D01*
X010189Y017052D01*
X010282Y016981D01*
X010373Y016905D01*
X010460Y016825D01*
X010542Y016741D01*
X010621Y016652D01*
X010695Y016561D01*
X010765Y016466D01*
X010831Y016367D01*
X010891Y016266D01*
X010947Y016162D01*
X010998Y016055D01*
X011043Y015946D01*
X011083Y015835D01*
X011118Y015722D01*
X011148Y015608D01*
X011172Y015492D01*
X011191Y015376D01*
X011204Y015259D01*
X011211Y015141D01*
X011213Y015023D01*
X011209Y014905D01*
X011200Y014787D01*
X011200Y002759D01*
X008938Y000189D02*
X002674Y000189D01*
X002548Y000201D01*
X002423Y000218D01*
X002298Y000242D01*
X002175Y000271D01*
X002053Y000306D01*
X001934Y000347D01*
X001816Y000394D01*
X001701Y000446D01*
X001588Y000504D01*
X001478Y000567D01*
X001371Y000635D01*
X001268Y000708D01*
X001168Y000786D01*
X001072Y000868D01*
X000980Y000955D01*
X000892Y001046D01*
X000809Y001142D01*
X000730Y001241D01*
X000657Y001344D01*
X000588Y001450D01*
X000524Y001560D01*
X000466Y001672D01*
X000413Y001787D01*
X000365Y001904D01*
X000323Y002024D01*
X000287Y002145D01*
X000257Y002268D01*
X000232Y002392D01*
X000214Y002517D01*
X000201Y002643D01*
X000195Y002770D01*
X000195Y002896D01*
X000200Y003023D01*
X000199Y014902D02*
X000191Y015015D01*
X000188Y015129D01*
X000191Y015242D01*
X000198Y015356D01*
X000212Y015469D01*
X000230Y015581D01*
X000254Y015692D01*
X000284Y015802D01*
X000318Y015911D01*
X000358Y016017D01*
X000402Y016122D01*
X000452Y016224D01*
X000506Y016324D01*
X000565Y016421D01*
X000629Y016516D01*
X000697Y016607D01*
X000769Y016695D01*
X000845Y016779D01*
X000926Y016860D01*
X001010Y016936D01*
X001097Y017009D01*
X001188Y017077D01*
X001282Y017141D01*
X001379Y017201D01*
X001479Y017255D01*
X001581Y017305D01*
X001686Y017350D01*
X001792Y017390D01*
X001901Y017425D01*
X002010Y017455D01*
X002121Y017479D01*
X002234Y017498D01*
X002347Y017512D01*
X011200Y002759D02*
X011205Y002644D01*
X011204Y002529D01*
X011197Y002414D01*
X011186Y002299D01*
X011168Y002185D01*
X011146Y002072D01*
X011118Y001961D01*
X011084Y001850D01*
X011046Y001742D01*
X011002Y001635D01*
X010954Y001531D01*
X010900Y001429D01*
X010842Y001329D01*
X010779Y001233D01*
X010711Y001139D01*
X010639Y001049D01*
X010563Y000963D01*
X010483Y000880D01*
X010399Y000801D01*
X010311Y000726D01*
X010220Y000656D01*
X010126Y000590D01*
X010028Y000528D01*
X009928Y000471D01*
X009825Y000419D01*
X009720Y000372D01*
X009613Y000330D01*
X009504Y000293D01*
X009393Y000262D01*
X009281Y000235D01*
X009167Y000215D01*
X009053Y000199D01*
X008938Y000189D01*
D11*
X008649Y001523D02*
X008651Y001570D01*
X008657Y001616D01*
X008667Y001662D01*
X008680Y001707D01*
X008698Y001750D01*
X008719Y001792D01*
X008743Y001832D01*
X008771Y001869D01*
X008802Y001904D01*
X008836Y001937D01*
X008872Y001966D01*
X008911Y001992D01*
X008952Y002015D01*
X008995Y002034D01*
X009039Y002050D01*
X009084Y002062D01*
X009130Y002070D01*
X009177Y002074D01*
X009223Y002074D01*
X009270Y002070D01*
X009316Y002062D01*
X009361Y002050D01*
X009405Y002034D01*
X009448Y002015D01*
X009489Y001992D01*
X009528Y001966D01*
X009564Y001937D01*
X009598Y001904D01*
X009629Y001869D01*
X009657Y001832D01*
X009681Y001792D01*
X009702Y001750D01*
X009720Y001707D01*
X009733Y001662D01*
X009743Y001616D01*
X009749Y001570D01*
X009751Y001523D01*
X009749Y001476D01*
X009743Y001430D01*
X009733Y001384D01*
X009720Y001339D01*
X009702Y001296D01*
X009681Y001254D01*
X009657Y001214D01*
X009629Y001177D01*
X009598Y001142D01*
X009564Y001109D01*
X009528Y001080D01*
X009489Y001054D01*
X009448Y001031D01*
X009405Y001012D01*
X009361Y000996D01*
X009316Y000984D01*
X009270Y000976D01*
X009223Y000972D01*
X009177Y000972D01*
X009130Y000976D01*
X009084Y000984D01*
X009039Y000996D01*
X008995Y001012D01*
X008952Y001031D01*
X008911Y001054D01*
X008872Y001080D01*
X008836Y001109D01*
X008802Y001142D01*
X008771Y001177D01*
X008743Y001214D01*
X008719Y001254D01*
X008698Y001296D01*
X008680Y001339D01*
X008667Y001384D01*
X008657Y001430D01*
X008651Y001476D01*
X008649Y001523D01*
X001649Y001523D02*
X001651Y001570D01*
X001657Y001616D01*
X001667Y001662D01*
X001680Y001707D01*
X001698Y001750D01*
X001719Y001792D01*
X001743Y001832D01*
X001771Y001869D01*
X001802Y001904D01*
X001836Y001937D01*
X001872Y001966D01*
X001911Y001992D01*
X001952Y002015D01*
X001995Y002034D01*
X002039Y002050D01*
X002084Y002062D01*
X002130Y002070D01*
X002177Y002074D01*
X002223Y002074D01*
X002270Y002070D01*
X002316Y002062D01*
X002361Y002050D01*
X002405Y002034D01*
X002448Y002015D01*
X002489Y001992D01*
X002528Y001966D01*
X002564Y001937D01*
X002598Y001904D01*
X002629Y001869D01*
X002657Y001832D01*
X002681Y001792D01*
X002702Y001750D01*
X002720Y001707D01*
X002733Y001662D01*
X002743Y001616D01*
X002749Y001570D01*
X002751Y001523D01*
X002749Y001476D01*
X002743Y001430D01*
X002733Y001384D01*
X002720Y001339D01*
X002702Y001296D01*
X002681Y001254D01*
X002657Y001214D01*
X002629Y001177D01*
X002598Y001142D01*
X002564Y001109D01*
X002528Y001080D01*
X002489Y001054D01*
X002448Y001031D01*
X002405Y001012D01*
X002361Y000996D01*
X002316Y000984D01*
X002270Y000976D01*
X002223Y000972D01*
X002177Y000972D01*
X002130Y000976D01*
X002084Y000984D01*
X002039Y000996D01*
X001995Y001012D01*
X001952Y001031D01*
X001911Y001054D01*
X001872Y001080D01*
X001836Y001109D01*
X001802Y001142D01*
X001771Y001177D01*
X001743Y001214D01*
X001719Y001254D01*
X001698Y001296D01*
X001680Y001339D01*
X001667Y001384D01*
X001657Y001430D01*
X001651Y001476D01*
X001649Y001523D01*
X002649Y016523D02*
X002651Y016570D01*
X002657Y016616D01*
X002667Y016662D01*
X002680Y016707D01*
X002698Y016750D01*
X002719Y016792D01*
X002743Y016832D01*
X002771Y016869D01*
X002802Y016904D01*
X002836Y016937D01*
X002872Y016966D01*
X002911Y016992D01*
X002952Y017015D01*
X002995Y017034D01*
X003039Y017050D01*
X003084Y017062D01*
X003130Y017070D01*
X003177Y017074D01*
X003223Y017074D01*
X003270Y017070D01*
X003316Y017062D01*
X003361Y017050D01*
X003405Y017034D01*
X003448Y017015D01*
X003489Y016992D01*
X003528Y016966D01*
X003564Y016937D01*
X003598Y016904D01*
X003629Y016869D01*
X003657Y016832D01*
X003681Y016792D01*
X003702Y016750D01*
X003720Y016707D01*
X003733Y016662D01*
X003743Y016616D01*
X003749Y016570D01*
X003751Y016523D01*
X003749Y016476D01*
X003743Y016430D01*
X003733Y016384D01*
X003720Y016339D01*
X003702Y016296D01*
X003681Y016254D01*
X003657Y016214D01*
X003629Y016177D01*
X003598Y016142D01*
X003564Y016109D01*
X003528Y016080D01*
X003489Y016054D01*
X003448Y016031D01*
X003405Y016012D01*
X003361Y015996D01*
X003316Y015984D01*
X003270Y015976D01*
X003223Y015972D01*
X003177Y015972D01*
X003130Y015976D01*
X003084Y015984D01*
X003039Y015996D01*
X002995Y016012D01*
X002952Y016031D01*
X002911Y016054D01*
X002872Y016080D01*
X002836Y016109D01*
X002802Y016142D01*
X002771Y016177D01*
X002743Y016214D01*
X002719Y016254D01*
X002698Y016296D01*
X002680Y016339D01*
X002667Y016384D01*
X002657Y016430D01*
X002651Y016476D01*
X002649Y016523D01*
X007649Y016523D02*
X007651Y016570D01*
X007657Y016616D01*
X007667Y016662D01*
X007680Y016707D01*
X007698Y016750D01*
X007719Y016792D01*
X007743Y016832D01*
X007771Y016869D01*
X007802Y016904D01*
X007836Y016937D01*
X007872Y016966D01*
X007911Y016992D01*
X007952Y017015D01*
X007995Y017034D01*
X008039Y017050D01*
X008084Y017062D01*
X008130Y017070D01*
X008177Y017074D01*
X008223Y017074D01*
X008270Y017070D01*
X008316Y017062D01*
X008361Y017050D01*
X008405Y017034D01*
X008448Y017015D01*
X008489Y016992D01*
X008528Y016966D01*
X008564Y016937D01*
X008598Y016904D01*
X008629Y016869D01*
X008657Y016832D01*
X008681Y016792D01*
X008702Y016750D01*
X008720Y016707D01*
X008733Y016662D01*
X008743Y016616D01*
X008749Y016570D01*
X008751Y016523D01*
X008749Y016476D01*
X008743Y016430D01*
X008733Y016384D01*
X008720Y016339D01*
X008702Y016296D01*
X008681Y016254D01*
X008657Y016214D01*
X008629Y016177D01*
X008598Y016142D01*
X008564Y016109D01*
X008528Y016080D01*
X008489Y016054D01*
X008448Y016031D01*
X008405Y016012D01*
X008361Y015996D01*
X008316Y015984D01*
X008270Y015976D01*
X008223Y015972D01*
X008177Y015972D01*
X008130Y015976D01*
X008084Y015984D01*
X008039Y015996D01*
X007995Y016012D01*
X007952Y016031D01*
X007911Y016054D01*
X007872Y016080D01*
X007836Y016109D01*
X007802Y016142D01*
X007771Y016177D01*
X007743Y016214D01*
X007719Y016254D01*
X007698Y016296D01*
X007680Y016339D01*
X007667Y016384D01*
X007657Y016430D01*
X007651Y016476D01*
X007649Y016523D01*
M02*
