G75*
G70*
%OFA0B0*%
%FSLAX24Y24*%
%IPPOS*%
%LPD*%
%AMOC8*
5,1,8,0,0,1.08239X$1,22.5*
%
%ADD10C,0.1182*%
%ADD11OC8,0.0760*%
%ADD12OC8,0.0820*%
%ADD13C,0.0820*%
%ADD14R,0.0820X0.0820*%
%ADD15OC8,0.0640*%
%ADD16C,0.0760*%
%ADD17R,0.0714X0.0714*%
%ADD18C,0.0714*%
%ADD19OC8,0.0710*%
%ADD20C,0.0710*%
%ADD21C,0.1740*%
D10*
X001811Y008952D03*
X003935Y022789D03*
X012517Y022799D03*
X015270Y008956D03*
D11*
X009657Y015245D03*
X009657Y016245D03*
X009657Y017245D03*
X009657Y018245D03*
X006657Y018245D03*
X006657Y017245D03*
X006657Y016245D03*
X006657Y015245D03*
D12*
X007157Y013245D03*
X007157Y012245D03*
X008157Y012145D03*
X008157Y013145D03*
X009157Y013245D03*
X009157Y012245D03*
D13*
X009437Y010635D03*
X009437Y008855D03*
X006877Y008855D03*
X006877Y010635D03*
X005107Y015245D03*
X005207Y016245D03*
X005107Y017245D03*
X006095Y019580D03*
X002864Y017252D03*
X002964Y016252D03*
X002864Y015252D03*
X010095Y019580D03*
X011107Y017245D03*
X011207Y016245D03*
X011107Y015245D03*
X013352Y015232D03*
X013452Y016232D03*
X013352Y017232D03*
D14*
X013452Y018232D03*
X011207Y018245D03*
X005207Y018245D03*
X002964Y018252D03*
D15*
X002337Y002058D03*
X002337Y004058D03*
X002351Y005288D03*
X002351Y007288D03*
X013187Y001659D03*
X014187Y001659D03*
X015204Y002473D03*
X016204Y002473D03*
D16*
X011640Y002189D03*
X011640Y006189D03*
D17*
X004837Y002890D03*
D18*
X004837Y003890D03*
X004837Y004890D03*
D19*
X013799Y006659D03*
X014532Y004456D03*
D20*
X013532Y004456D03*
X012799Y006659D03*
D21*
X010132Y004833D03*
X008202Y005994D03*
X008202Y003632D03*
M02*
