%
M48
M72
T01C0.0276
T02C0.0320
T03C0.0354
T04C0.0400
T05C0.1102
%
T01
X2492Y4426
X2492Y5426
X4508Y14426
X6477Y14426
T02
X6992Y11926
X6992Y10926
X6992Y9926
X6992Y8926
X7992Y4926
X8992Y4926
X3992Y8926
X3992Y9926
X3992Y10926
X3992Y11926
T03
X3492Y13426
X3492Y15426
X7492Y15426
X7492Y13426
T04
X8542Y11926
X8442Y10926
X8542Y9926
X8442Y8926
X6492Y6926
X6492Y5926
X5492Y5826
X5492Y6826
X4492Y6926
X4492Y5926
X4212Y4316
X4212Y2536
X4486Y930
X3486Y930
X5486Y930
X6486Y930
X7486Y930
X8486Y930
X6772Y2536
X6772Y4316
X2542Y9926
X2442Y8926
X2442Y10926
X2542Y11926
T05
X2192Y2160
X9992Y2143
X8492Y16926
X3492Y16926
M30
