G75*
G70*
%OFA0B0*%
%FSLAX24Y24*%
%IPPOS*%
%LPD*%
%AMOC8*
5,1,8,0,0,1.08239X$1,22.5*
%
%ADD10C,0.0160*%
%ADD11C,0.0010*%
%ADD12C,0.0030*%
%ADD13C,0.0050*%
%ADD14C,0.0000*%
%ADD15C,0.0020*%
%ADD16C,0.0040*%
%ADD17C,0.0080*%
%ADD18C,0.0100*%
%ADD19C,0.0060*%
%ADD20C,0.0059*%
D10*
X000200Y003426D02*
X000200Y015305D01*
X000200Y015306D02*
X000199Y015426D01*
X000204Y015546D01*
X000214Y015666D01*
X000230Y015785D01*
X000251Y015903D01*
X000279Y016020D01*
X000311Y016136D01*
X000350Y016250D01*
X000393Y016362D01*
X000442Y016472D01*
X000496Y016579D01*
X000555Y016684D01*
X000619Y016786D01*
X000688Y016884D01*
X000761Y016980D01*
X000839Y017071D01*
X000921Y017159D01*
X001007Y017243D01*
X001097Y017323D01*
X001191Y017398D01*
X001288Y017469D01*
X001389Y017535D01*
X001492Y017596D01*
X001599Y017652D01*
X001707Y017703D01*
X001819Y017749D01*
X001932Y017789D01*
X002047Y017824D01*
X002163Y017854D01*
X002281Y017878D01*
X002400Y017896D01*
X002520Y017909D01*
X002640Y017916D01*
X002639Y017915D02*
X009282Y017915D01*
X009406Y017906D01*
X009529Y017892D01*
X009651Y017871D01*
X009773Y017845D01*
X009892Y017813D01*
X010010Y017775D01*
X010127Y017732D01*
X010241Y017683D01*
X010352Y017629D01*
X010461Y017570D01*
X010567Y017505D01*
X010670Y017436D01*
X010769Y017362D01*
X010865Y017283D01*
X010956Y017199D01*
X011044Y017112D01*
X011128Y017020D01*
X011207Y016925D01*
X011281Y016825D01*
X011351Y016723D01*
X011415Y016617D01*
X011475Y016508D01*
X011529Y016397D01*
X011578Y016283D01*
X011621Y016167D01*
X011659Y016048D01*
X011691Y015929D01*
X011718Y015808D01*
X011738Y015685D01*
X011753Y015562D01*
X011762Y015439D01*
X011765Y015315D01*
X011762Y015191D01*
X011762Y015190D02*
X011762Y003163D01*
X009208Y000187D02*
X002944Y000187D01*
X002798Y000203D01*
X002652Y000226D01*
X002508Y000256D01*
X002365Y000293D01*
X002225Y000337D01*
X002087Y000388D01*
X001951Y000446D01*
X001818Y000510D01*
X001689Y000580D01*
X001563Y000657D01*
X001442Y000740D01*
X001324Y000829D01*
X001211Y000923D01*
X001103Y001023D01*
X000999Y001129D01*
X000901Y001239D01*
X000809Y001353D01*
X000722Y001472D01*
X000641Y001596D01*
X000567Y001723D01*
X000499Y001853D01*
X000437Y001987D01*
X000382Y002124D01*
X000333Y002263D01*
X000292Y002404D01*
X000257Y002547D01*
X000230Y002692D01*
X000209Y002838D01*
X000196Y002985D01*
X000190Y003132D01*
X000192Y003280D01*
X000200Y003427D01*
X009208Y000187D02*
X009339Y000200D01*
X009470Y000220D01*
X009599Y000245D01*
X009727Y000277D01*
X009854Y000315D01*
X009978Y000358D01*
X010100Y000408D01*
X010220Y000463D01*
X010337Y000524D01*
X010451Y000591D01*
X010562Y000663D01*
X010669Y000740D01*
X010772Y000822D01*
X010872Y000909D01*
X010967Y001000D01*
X011058Y001096D01*
X011144Y001196D01*
X011225Y001301D01*
X011301Y001408D01*
X011372Y001520D01*
X011437Y001634D01*
X011497Y001752D01*
X011551Y001872D01*
X011600Y001995D01*
X011642Y002120D01*
X011679Y002247D01*
X011709Y002375D01*
X011734Y002505D01*
X011752Y002636D01*
X011764Y002767D01*
X011769Y002899D01*
X011769Y003031D01*
X011762Y003163D01*
D11*
X007460Y004146D02*
X007532Y004200D01*
X007531Y004199D02*
X007574Y004146D01*
X007619Y004095D01*
X007668Y004047D01*
X007719Y004002D01*
X007773Y003959D01*
X007829Y003920D01*
X007887Y003884D01*
X007947Y003851D01*
X008008Y003822D01*
X008072Y003797D01*
X008136Y003775D01*
X008202Y003756D01*
X008269Y003742D01*
X008336Y003731D01*
X008404Y003724D01*
X008472Y003721D01*
X008541Y003722D01*
X008609Y003727D01*
X008677Y003735D01*
X008744Y003748D01*
X008810Y003764D01*
X008875Y003784D01*
X008940Y003807D01*
X009002Y003834D01*
X009063Y003865D01*
X009122Y003899D01*
X009180Y003936D01*
X009235Y003977D01*
X009287Y004021D01*
X009337Y004067D01*
X009384Y004116D01*
X009429Y004168D01*
X009470Y004222D01*
X009509Y004279D01*
X009544Y004338D01*
X009575Y004398D01*
X009603Y004460D01*
X009628Y004524D01*
X009649Y004589D01*
X009666Y004655D01*
X009680Y004722D01*
X009689Y004790D01*
X009695Y004858D01*
X009697Y004926D01*
X009695Y004994D01*
X009689Y005062D01*
X009680Y005130D01*
X009666Y005197D01*
X009649Y005263D01*
X009628Y005328D01*
X009603Y005392D01*
X009575Y005454D01*
X009544Y005514D01*
X009509Y005573D01*
X009470Y005630D01*
X009429Y005684D01*
X009384Y005736D01*
X009337Y005785D01*
X009287Y005831D01*
X009235Y005875D01*
X009180Y005916D01*
X009122Y005953D01*
X009063Y005987D01*
X009002Y006018D01*
X008940Y006045D01*
X008875Y006068D01*
X008810Y006088D01*
X008744Y006104D01*
X008677Y006117D01*
X008609Y006125D01*
X008541Y006130D01*
X008472Y006131D01*
X008404Y006128D01*
X008336Y006121D01*
X008269Y006110D01*
X008202Y006096D01*
X008136Y006077D01*
X008072Y006055D01*
X008008Y006030D01*
X007947Y006001D01*
X007887Y005968D01*
X007829Y005932D01*
X007773Y005893D01*
X007719Y005850D01*
X007668Y005805D01*
X007619Y005757D01*
X007574Y005706D01*
X007531Y005653D01*
X007460Y005706D01*
X007459Y005707D01*
X007503Y005762D01*
X007551Y005815D01*
X007601Y005866D01*
X007654Y005913D01*
X007709Y005957D01*
X007767Y005999D01*
X007827Y006037D01*
X007888Y006072D01*
X007952Y006103D01*
X008017Y006131D01*
X008084Y006155D01*
X008152Y006176D01*
X008221Y006192D01*
X008291Y006205D01*
X008361Y006214D01*
X008432Y006220D01*
X008503Y006221D01*
X008574Y006218D01*
X008645Y006212D01*
X008715Y006202D01*
X008784Y006188D01*
X008853Y006170D01*
X008921Y006148D01*
X008987Y006123D01*
X009052Y006094D01*
X009115Y006061D01*
X009176Y006025D01*
X009235Y005986D01*
X009292Y005944D01*
X009347Y005899D01*
X009399Y005850D01*
X009448Y005799D01*
X009495Y005746D01*
X009538Y005689D01*
X009578Y005631D01*
X009615Y005570D01*
X009649Y005508D01*
X009679Y005444D01*
X009706Y005378D01*
X009729Y005311D01*
X009748Y005242D01*
X009763Y005173D01*
X009775Y005103D01*
X009783Y005032D01*
X009787Y004961D01*
X009787Y004891D01*
X009783Y004820D01*
X009775Y004749D01*
X009763Y004679D01*
X009748Y004610D01*
X009729Y004541D01*
X009706Y004474D01*
X009679Y004408D01*
X009649Y004344D01*
X009615Y004282D01*
X009578Y004221D01*
X009538Y004163D01*
X009495Y004106D01*
X009448Y004053D01*
X009399Y004002D01*
X009347Y003953D01*
X009292Y003908D01*
X009235Y003866D01*
X009176Y003827D01*
X009115Y003791D01*
X009052Y003758D01*
X008987Y003729D01*
X008921Y003704D01*
X008853Y003682D01*
X008784Y003664D01*
X008715Y003650D01*
X008645Y003640D01*
X008574Y003634D01*
X008503Y003631D01*
X008432Y003632D01*
X008361Y003638D01*
X008291Y003647D01*
X008221Y003660D01*
X008152Y003676D01*
X008084Y003697D01*
X008017Y003721D01*
X007952Y003749D01*
X007888Y003780D01*
X007827Y003815D01*
X007767Y003853D01*
X007709Y003895D01*
X007654Y003939D01*
X007601Y003986D01*
X007551Y004037D01*
X007503Y004090D01*
X007459Y004145D01*
X007466Y004150D01*
X007511Y004095D01*
X007558Y004042D01*
X007609Y003991D01*
X007662Y003944D01*
X007718Y003899D01*
X007776Y003858D01*
X007836Y003820D01*
X007898Y003785D01*
X007962Y003754D01*
X008028Y003727D01*
X008095Y003703D01*
X008164Y003683D01*
X008233Y003666D01*
X008303Y003654D01*
X008374Y003645D01*
X008445Y003641D01*
X008516Y003640D01*
X008587Y003644D01*
X008658Y003651D01*
X008729Y003662D01*
X008798Y003677D01*
X008867Y003696D01*
X008935Y003719D01*
X009001Y003745D01*
X009066Y003775D01*
X009128Y003809D01*
X009189Y003845D01*
X009248Y003886D01*
X009305Y003929D01*
X009359Y003976D01*
X009410Y004025D01*
X009458Y004078D01*
X009504Y004132D01*
X009546Y004190D01*
X009585Y004249D01*
X009621Y004311D01*
X009654Y004374D01*
X009682Y004439D01*
X009708Y004506D01*
X009729Y004574D01*
X009747Y004643D01*
X009760Y004713D01*
X009770Y004784D01*
X009776Y004855D01*
X009778Y004926D01*
X009776Y004997D01*
X009770Y005068D01*
X009760Y005139D01*
X009747Y005209D01*
X009729Y005278D01*
X009708Y005346D01*
X009682Y005413D01*
X009654Y005478D01*
X009621Y005541D01*
X009585Y005603D01*
X009546Y005662D01*
X009504Y005720D01*
X009458Y005774D01*
X009410Y005827D01*
X009359Y005876D01*
X009305Y005923D01*
X009248Y005966D01*
X009189Y006007D01*
X009128Y006043D01*
X009066Y006077D01*
X009001Y006107D01*
X008935Y006133D01*
X008867Y006156D01*
X008798Y006175D01*
X008729Y006190D01*
X008658Y006201D01*
X008587Y006208D01*
X008516Y006212D01*
X008445Y006211D01*
X008374Y006207D01*
X008303Y006198D01*
X008233Y006186D01*
X008164Y006169D01*
X008095Y006149D01*
X008028Y006125D01*
X007962Y006098D01*
X007898Y006067D01*
X007836Y006032D01*
X007776Y005994D01*
X007718Y005953D01*
X007662Y005908D01*
X007609Y005861D01*
X007558Y005810D01*
X007511Y005757D01*
X007466Y005702D01*
X007473Y005696D01*
X007518Y005751D01*
X007565Y005804D01*
X007615Y005854D01*
X007668Y005901D01*
X007723Y005945D01*
X007781Y005987D01*
X007840Y006024D01*
X007902Y006059D01*
X007966Y006090D01*
X008031Y006117D01*
X008098Y006141D01*
X008166Y006161D01*
X008235Y006177D01*
X008304Y006189D01*
X008375Y006198D01*
X008445Y006202D01*
X008516Y006203D01*
X008587Y006199D01*
X008657Y006192D01*
X008727Y006181D01*
X008796Y006166D01*
X008864Y006147D01*
X008932Y006125D01*
X008997Y006099D01*
X009062Y006069D01*
X009124Y006036D01*
X009184Y005999D01*
X009243Y005959D01*
X009299Y005916D01*
X009353Y005870D01*
X009403Y005820D01*
X009452Y005769D01*
X009497Y005714D01*
X009539Y005657D01*
X009578Y005598D01*
X009613Y005537D01*
X009646Y005474D01*
X009674Y005409D01*
X009699Y005343D01*
X009720Y005275D01*
X009738Y005207D01*
X009751Y005137D01*
X009761Y005067D01*
X009767Y004997D01*
X009769Y004926D01*
X009767Y004855D01*
X009761Y004785D01*
X009751Y004715D01*
X009738Y004645D01*
X009720Y004577D01*
X009699Y004509D01*
X009674Y004443D01*
X009646Y004378D01*
X009613Y004315D01*
X009578Y004254D01*
X009539Y004195D01*
X009497Y004138D01*
X009452Y004083D01*
X009403Y004032D01*
X009353Y003982D01*
X009299Y003936D01*
X009243Y003893D01*
X009184Y003853D01*
X009124Y003816D01*
X009062Y003783D01*
X008997Y003753D01*
X008932Y003727D01*
X008864Y003705D01*
X008796Y003686D01*
X008727Y003671D01*
X008657Y003660D01*
X008587Y003653D01*
X008516Y003649D01*
X008445Y003650D01*
X008375Y003654D01*
X008304Y003663D01*
X008235Y003675D01*
X008166Y003691D01*
X008098Y003711D01*
X008031Y003735D01*
X007966Y003762D01*
X007902Y003793D01*
X007840Y003828D01*
X007781Y003865D01*
X007723Y003907D01*
X007668Y003951D01*
X007615Y003998D01*
X007565Y004048D01*
X007518Y004101D01*
X007473Y004156D01*
X007481Y004161D01*
X007525Y004106D01*
X007573Y004053D01*
X007623Y004003D01*
X007676Y003955D01*
X007732Y003911D01*
X007790Y003870D01*
X007850Y003833D01*
X007912Y003798D01*
X007976Y003768D01*
X008042Y003741D01*
X008109Y003717D01*
X008177Y003698D01*
X008247Y003682D01*
X008317Y003670D01*
X008387Y003662D01*
X008458Y003658D01*
X008529Y003659D01*
X008600Y003663D01*
X008671Y003671D01*
X008741Y003683D01*
X008810Y003699D01*
X008878Y003718D01*
X008946Y003742D01*
X009011Y003769D01*
X009075Y003800D01*
X009137Y003834D01*
X009197Y003872D01*
X009255Y003914D01*
X009311Y003958D01*
X009364Y004005D01*
X009414Y004056D01*
X009461Y004109D01*
X009506Y004164D01*
X009547Y004222D01*
X009584Y004282D01*
X009619Y004345D01*
X009650Y004409D01*
X009677Y004474D01*
X009700Y004541D01*
X009720Y004610D01*
X009736Y004679D01*
X009748Y004749D01*
X009756Y004820D01*
X009760Y004890D01*
X009760Y004962D01*
X009756Y005032D01*
X009748Y005103D01*
X009736Y005173D01*
X009720Y005242D01*
X009700Y005311D01*
X009677Y005378D01*
X009650Y005443D01*
X009619Y005507D01*
X009584Y005570D01*
X009547Y005630D01*
X009506Y005688D01*
X009461Y005743D01*
X009414Y005796D01*
X009364Y005847D01*
X009311Y005894D01*
X009255Y005938D01*
X009197Y005980D01*
X009137Y006018D01*
X009075Y006052D01*
X009011Y006083D01*
X008946Y006110D01*
X008878Y006134D01*
X008810Y006153D01*
X008741Y006169D01*
X008671Y006181D01*
X008600Y006189D01*
X008529Y006193D01*
X008458Y006194D01*
X008387Y006190D01*
X008317Y006182D01*
X008247Y006170D01*
X008177Y006154D01*
X008109Y006135D01*
X008042Y006111D01*
X007976Y006084D01*
X007912Y006054D01*
X007850Y006019D01*
X007790Y005982D01*
X007732Y005941D01*
X007676Y005897D01*
X007623Y005849D01*
X007573Y005799D01*
X007525Y005746D01*
X007481Y005691D01*
X007488Y005685D01*
X007532Y005740D01*
X007579Y005793D01*
X007629Y005843D01*
X007682Y005890D01*
X007737Y005934D01*
X007795Y005974D01*
X007854Y006012D01*
X007916Y006046D01*
X007980Y006076D01*
X008045Y006103D01*
X008112Y006126D01*
X008180Y006146D01*
X008248Y006161D01*
X008318Y006173D01*
X008388Y006181D01*
X008459Y006185D01*
X008529Y006184D01*
X008600Y006180D01*
X008670Y006172D01*
X008739Y006160D01*
X008808Y006145D01*
X008876Y006125D01*
X008942Y006102D01*
X009007Y006075D01*
X009071Y006044D01*
X009133Y006010D01*
X009192Y005972D01*
X009250Y005931D01*
X009305Y005887D01*
X009358Y005840D01*
X009407Y005790D01*
X009454Y005738D01*
X009498Y005682D01*
X009539Y005625D01*
X009577Y005565D01*
X009611Y005503D01*
X009641Y005440D01*
X009668Y005375D01*
X009692Y005308D01*
X009711Y005240D01*
X009727Y005171D01*
X009739Y005102D01*
X009747Y005032D01*
X009751Y004961D01*
X009751Y004891D01*
X009747Y004820D01*
X009739Y004750D01*
X009727Y004681D01*
X009711Y004612D01*
X009692Y004544D01*
X009668Y004477D01*
X009641Y004412D01*
X009611Y004349D01*
X009577Y004287D01*
X009539Y004227D01*
X009498Y004170D01*
X009454Y004114D01*
X009407Y004062D01*
X009358Y004012D01*
X009305Y003965D01*
X009250Y003921D01*
X009192Y003880D01*
X009133Y003842D01*
X009071Y003808D01*
X009007Y003777D01*
X008942Y003750D01*
X008876Y003727D01*
X008808Y003707D01*
X008739Y003692D01*
X008670Y003680D01*
X008600Y003672D01*
X008529Y003668D01*
X008459Y003667D01*
X008388Y003671D01*
X008318Y003679D01*
X008248Y003691D01*
X008180Y003706D01*
X008112Y003726D01*
X008045Y003749D01*
X007980Y003776D01*
X007916Y003806D01*
X007854Y003840D01*
X007795Y003878D01*
X007737Y003918D01*
X007682Y003962D01*
X007629Y004009D01*
X007579Y004059D01*
X007532Y004112D01*
X007488Y004167D01*
X007495Y004172D01*
X007539Y004117D01*
X007586Y004065D01*
X007635Y004016D01*
X007688Y003969D01*
X007742Y003926D01*
X007800Y003885D01*
X007859Y003848D01*
X007920Y003814D01*
X007984Y003784D01*
X008048Y003757D01*
X008115Y003734D01*
X008182Y003715D01*
X008250Y003700D01*
X008319Y003688D01*
X008389Y003680D01*
X008459Y003676D01*
X008529Y003677D01*
X008599Y003681D01*
X008668Y003689D01*
X008737Y003700D01*
X008806Y003716D01*
X008873Y003735D01*
X008939Y003759D01*
X009004Y003786D01*
X009067Y003816D01*
X009128Y003850D01*
X009187Y003887D01*
X009245Y003928D01*
X009299Y003972D01*
X009351Y004018D01*
X009401Y004068D01*
X009448Y004120D01*
X009491Y004175D01*
X009532Y004232D01*
X009569Y004291D01*
X009603Y004353D01*
X009633Y004416D01*
X009660Y004481D01*
X009683Y004547D01*
X009702Y004614D01*
X009718Y004682D01*
X009730Y004751D01*
X009738Y004821D01*
X009742Y004891D01*
X009742Y004961D01*
X009738Y005031D01*
X009730Y005101D01*
X009718Y005170D01*
X009702Y005238D01*
X009683Y005305D01*
X009660Y005371D01*
X009633Y005436D01*
X009603Y005499D01*
X009569Y005561D01*
X009532Y005620D01*
X009491Y005677D01*
X009448Y005732D01*
X009401Y005784D01*
X009351Y005834D01*
X009299Y005880D01*
X009245Y005924D01*
X009187Y005965D01*
X009128Y006002D01*
X009067Y006036D01*
X009004Y006066D01*
X008939Y006093D01*
X008873Y006117D01*
X008806Y006136D01*
X008737Y006152D01*
X008668Y006163D01*
X008599Y006171D01*
X008529Y006175D01*
X008459Y006176D01*
X008389Y006172D01*
X008319Y006164D01*
X008250Y006152D01*
X008182Y006137D01*
X008115Y006118D01*
X008048Y006095D01*
X007984Y006068D01*
X007920Y006038D01*
X007859Y006004D01*
X007800Y005967D01*
X007742Y005926D01*
X007688Y005883D01*
X007635Y005836D01*
X007586Y005787D01*
X007539Y005735D01*
X007495Y005680D01*
X007502Y005675D01*
X007546Y005729D01*
X007592Y005781D01*
X007641Y005830D01*
X007693Y005876D01*
X007748Y005919D01*
X007805Y005959D01*
X007864Y005996D01*
X007925Y006030D01*
X007987Y006060D01*
X008052Y006086D01*
X008117Y006109D01*
X008184Y006128D01*
X008252Y006144D01*
X008321Y006155D01*
X008390Y006163D01*
X008459Y006167D01*
X008529Y006166D01*
X008598Y006162D01*
X008667Y006155D01*
X008736Y006143D01*
X008803Y006127D01*
X008870Y006108D01*
X008936Y006085D01*
X009000Y006058D01*
X009063Y006028D01*
X009124Y005994D01*
X009182Y005957D01*
X009239Y005917D01*
X009293Y005874D01*
X009345Y005827D01*
X009394Y005778D01*
X009441Y005726D01*
X009484Y005672D01*
X009524Y005615D01*
X009561Y005556D01*
X009595Y005495D01*
X009625Y005432D01*
X009652Y005368D01*
X009675Y005303D01*
X009694Y005236D01*
X009709Y005168D01*
X009721Y005099D01*
X009729Y005030D01*
X009733Y004961D01*
X009733Y004891D01*
X009729Y004822D01*
X009721Y004753D01*
X009709Y004684D01*
X009694Y004616D01*
X009675Y004549D01*
X009652Y004484D01*
X009625Y004420D01*
X009595Y004357D01*
X009561Y004296D01*
X009524Y004237D01*
X009484Y004180D01*
X009441Y004126D01*
X009394Y004074D01*
X009345Y004025D01*
X009293Y003978D01*
X009239Y003935D01*
X009182Y003895D01*
X009124Y003858D01*
X009063Y003824D01*
X009000Y003794D01*
X008936Y003767D01*
X008870Y003744D01*
X008803Y003725D01*
X008736Y003709D01*
X008667Y003697D01*
X008598Y003690D01*
X008529Y003686D01*
X008459Y003685D01*
X008390Y003689D01*
X008321Y003697D01*
X008252Y003708D01*
X008184Y003724D01*
X008117Y003743D01*
X008052Y003766D01*
X007987Y003792D01*
X007925Y003822D01*
X007864Y003856D01*
X007805Y003893D01*
X007748Y003933D01*
X007693Y003976D01*
X007641Y004022D01*
X007592Y004071D01*
X007546Y004123D01*
X007502Y004177D01*
X007509Y004183D01*
X007553Y004129D01*
X007599Y004078D01*
X007648Y004029D01*
X007699Y003983D01*
X007753Y003940D01*
X007810Y003900D01*
X007868Y003864D01*
X007929Y003830D01*
X007991Y003800D01*
X008055Y003774D01*
X008120Y003752D01*
X008186Y003733D01*
X008254Y003717D01*
X008322Y003706D01*
X008390Y003698D01*
X008459Y003694D01*
X008528Y003695D01*
X008597Y003699D01*
X008666Y003706D01*
X008734Y003718D01*
X008801Y003733D01*
X008868Y003753D01*
X008933Y003776D01*
X008996Y003802D01*
X009059Y003832D01*
X009119Y003865D01*
X009177Y003902D01*
X009234Y003942D01*
X009288Y003985D01*
X009339Y004031D01*
X009388Y004080D01*
X009434Y004132D01*
X009477Y004186D01*
X009517Y004242D01*
X009553Y004301D01*
X009587Y004361D01*
X009617Y004423D01*
X009643Y004487D01*
X009666Y004552D01*
X009685Y004619D01*
X009700Y004686D01*
X009712Y004754D01*
X009720Y004823D01*
X009724Y004891D01*
X009724Y004961D01*
X009720Y005029D01*
X009712Y005098D01*
X009700Y005166D01*
X009685Y005233D01*
X009666Y005300D01*
X009643Y005365D01*
X009617Y005429D01*
X009587Y005491D01*
X009553Y005551D01*
X009517Y005610D01*
X009477Y005666D01*
X009434Y005720D01*
X009388Y005772D01*
X009339Y005821D01*
X009288Y005867D01*
X009234Y005910D01*
X009177Y005950D01*
X009119Y005987D01*
X009059Y006020D01*
X008996Y006050D01*
X008933Y006076D01*
X008868Y006099D01*
X008801Y006119D01*
X008734Y006134D01*
X008666Y006146D01*
X008597Y006153D01*
X008528Y006157D01*
X008459Y006158D01*
X008390Y006154D01*
X008322Y006146D01*
X008254Y006135D01*
X008186Y006119D01*
X008120Y006100D01*
X008055Y006078D01*
X007991Y006052D01*
X007929Y006022D01*
X007868Y005988D01*
X007810Y005952D01*
X007753Y005912D01*
X007699Y005869D01*
X007648Y005823D01*
X007599Y005774D01*
X007553Y005723D01*
X007509Y005669D01*
X007517Y005664D01*
X007560Y005718D01*
X007606Y005769D01*
X007656Y005818D01*
X007707Y005864D01*
X007762Y005907D01*
X007819Y005947D01*
X007877Y005983D01*
X007938Y006017D01*
X008001Y006046D01*
X008065Y006072D01*
X008131Y006094D01*
X008198Y006113D01*
X008265Y006128D01*
X008334Y006139D01*
X008403Y006146D01*
X008472Y006149D01*
X008541Y006148D01*
X008611Y006143D01*
X008679Y006135D01*
X008747Y006122D01*
X008815Y006106D01*
X008881Y006085D01*
X008946Y006062D01*
X009010Y006034D01*
X009072Y006003D01*
X009132Y005968D01*
X009190Y005930D01*
X009246Y005889D01*
X009299Y005845D01*
X009350Y005798D01*
X009398Y005748D01*
X009443Y005695D01*
X009485Y005640D01*
X009524Y005583D01*
X009559Y005523D01*
X009591Y005462D01*
X009620Y005399D01*
X009645Y005334D01*
X009666Y005268D01*
X009684Y005201D01*
X009697Y005133D01*
X009707Y005064D01*
X009713Y004995D01*
X009715Y004926D01*
X009713Y004857D01*
X009707Y004788D01*
X009697Y004719D01*
X009684Y004651D01*
X009666Y004584D01*
X009645Y004518D01*
X009620Y004453D01*
X009591Y004390D01*
X009559Y004329D01*
X009524Y004269D01*
X009485Y004212D01*
X009443Y004157D01*
X009398Y004104D01*
X009350Y004054D01*
X009299Y004007D01*
X009246Y003963D01*
X009190Y003922D01*
X009132Y003884D01*
X009072Y003849D01*
X009010Y003818D01*
X008946Y003790D01*
X008881Y003767D01*
X008815Y003746D01*
X008747Y003730D01*
X008679Y003717D01*
X008611Y003709D01*
X008541Y003704D01*
X008472Y003703D01*
X008403Y003706D01*
X008334Y003713D01*
X008265Y003724D01*
X008198Y003739D01*
X008131Y003758D01*
X008065Y003780D01*
X008001Y003806D01*
X007938Y003835D01*
X007877Y003869D01*
X007819Y003905D01*
X007762Y003945D01*
X007707Y003988D01*
X007656Y004034D01*
X007606Y004083D01*
X007560Y004134D01*
X007517Y004188D01*
X007524Y004194D01*
X007567Y004140D01*
X007613Y004089D01*
X007662Y004040D01*
X007713Y003995D01*
X007767Y003952D01*
X007824Y003913D01*
X007882Y003876D01*
X007942Y003843D01*
X008005Y003814D01*
X008068Y003788D01*
X008134Y003766D01*
X008200Y003748D01*
X008267Y003733D01*
X008335Y003722D01*
X008404Y003715D01*
X008472Y003712D01*
X008541Y003713D01*
X008610Y003718D01*
X008678Y003726D01*
X008746Y003739D01*
X008812Y003755D01*
X008878Y003775D01*
X008943Y003799D01*
X009006Y003826D01*
X009067Y003857D01*
X009127Y003891D01*
X009185Y003929D01*
X009240Y003970D01*
X009293Y004014D01*
X009343Y004061D01*
X009391Y004110D01*
X009436Y004162D01*
X009478Y004217D01*
X009516Y004274D01*
X009551Y004333D01*
X009583Y004394D01*
X009612Y004457D01*
X009636Y004521D01*
X009658Y004587D01*
X009675Y004653D01*
X009688Y004721D01*
X009698Y004789D01*
X009704Y004857D01*
X009706Y004926D01*
X009704Y004995D01*
X009698Y005063D01*
X009688Y005131D01*
X009675Y005199D01*
X009658Y005265D01*
X009636Y005331D01*
X009612Y005395D01*
X009583Y005458D01*
X009551Y005519D01*
X009516Y005578D01*
X009478Y005635D01*
X009436Y005690D01*
X009391Y005742D01*
X009343Y005791D01*
X009293Y005838D01*
X009240Y005882D01*
X009185Y005923D01*
X009127Y005961D01*
X009067Y005995D01*
X009006Y006026D01*
X008943Y006053D01*
X008878Y006077D01*
X008812Y006097D01*
X008746Y006113D01*
X008678Y006126D01*
X008610Y006134D01*
X008541Y006139D01*
X008472Y006140D01*
X008404Y006137D01*
X008335Y006130D01*
X008267Y006119D01*
X008200Y006104D01*
X008134Y006086D01*
X008068Y006064D01*
X008005Y006038D01*
X007942Y006009D01*
X007882Y005976D01*
X007824Y005939D01*
X007767Y005900D01*
X007713Y005857D01*
X007662Y005812D01*
X007613Y005763D01*
X007567Y005712D01*
X007524Y005658D01*
X005750Y013771D02*
X005650Y013771D01*
X005750Y013872D01*
X005750Y013897D01*
X005725Y013922D01*
X005675Y013922D01*
X005650Y013897D01*
X005603Y013897D02*
X005578Y013922D01*
X005528Y013922D01*
X005503Y013897D01*
X005503Y013796D01*
X005528Y013771D01*
X005578Y013771D01*
X005603Y013796D01*
X005685Y014372D02*
X005760Y014372D01*
X005760Y014472D01*
X005808Y014447D02*
X005858Y014447D01*
X005808Y014522D02*
X005908Y014522D01*
X005808Y014522D02*
X005808Y014372D01*
X005685Y014372D02*
X005660Y014397D01*
X005660Y014472D01*
X005318Y014372D02*
X005218Y014372D01*
X005170Y014372D02*
X005145Y014372D01*
X005145Y014397D01*
X005170Y014397D01*
X005170Y014372D01*
X005097Y014397D02*
X005097Y014497D01*
X004997Y014397D01*
X005022Y014372D01*
X005072Y014372D01*
X005097Y014397D01*
X004997Y014397D02*
X004997Y014497D01*
X005022Y014522D01*
X005072Y014522D01*
X005097Y014497D01*
X005218Y014472D02*
X005268Y014522D01*
X005268Y014372D01*
X001837Y004879D02*
X001837Y004779D01*
X001837Y004829D02*
X001687Y004829D01*
X001737Y004779D01*
X001712Y004732D02*
X001687Y004706D01*
X001687Y004656D01*
X001712Y004631D01*
X001812Y004631D01*
X001837Y004656D01*
X001837Y004706D01*
X001812Y004732D01*
D12*
X001742Y003166D02*
X001936Y003166D01*
X001839Y003166D02*
X001839Y003456D01*
X001742Y003360D01*
X002037Y003408D02*
X002037Y003214D01*
X002230Y003408D01*
X002230Y003214D01*
X002182Y003166D01*
X002085Y003166D01*
X002037Y003214D01*
X002037Y003408D02*
X002085Y003456D01*
X002182Y003456D01*
X002230Y003408D01*
X002331Y003408D02*
X002331Y003214D01*
X002525Y003408D01*
X002525Y003214D01*
X002477Y003166D01*
X002380Y003166D01*
X002331Y003214D01*
X002331Y003408D02*
X002380Y003456D01*
X002477Y003456D01*
X002525Y003408D01*
X002626Y003360D02*
X002626Y003214D01*
X002674Y003166D01*
X002820Y003166D01*
X002820Y003360D01*
X002921Y003311D02*
X003018Y003311D01*
X003114Y003456D02*
X002921Y003456D01*
X002921Y003166D01*
X004802Y001956D02*
X004802Y001666D01*
X004802Y001763D02*
X004947Y001763D01*
X004995Y001811D01*
X004995Y001908D01*
X004947Y001956D01*
X004802Y001956D01*
X004898Y001763D02*
X004995Y001666D01*
X005096Y001666D02*
X005096Y001956D01*
X005290Y001956D01*
X005391Y001908D02*
X005391Y001860D01*
X005439Y001811D01*
X005536Y001811D01*
X005584Y001763D01*
X005584Y001714D01*
X005536Y001666D01*
X005439Y001666D01*
X005391Y001714D01*
X005290Y001666D02*
X005096Y001666D01*
X005096Y001811D02*
X005193Y001811D01*
X005391Y001908D02*
X005439Y001956D01*
X005536Y001956D01*
X005584Y001908D01*
X005686Y001956D02*
X005686Y001666D01*
X005879Y001666D01*
X005782Y001811D02*
X005686Y001811D01*
X005686Y001956D02*
X005879Y001956D01*
X005980Y001956D02*
X006174Y001956D01*
X006077Y001956D02*
X006077Y001666D01*
X007862Y003192D02*
X007862Y003482D01*
X008007Y003482D01*
X008055Y003434D01*
X008055Y003337D01*
X008007Y003289D01*
X007862Y003289D01*
X008156Y003240D02*
X008205Y003192D01*
X008301Y003192D01*
X008350Y003240D01*
X008350Y003434D01*
X008301Y003482D01*
X008205Y003482D01*
X008156Y003434D01*
X008156Y003240D01*
X008451Y003192D02*
X008451Y003482D01*
X008548Y003289D02*
X008644Y003192D01*
X008644Y003482D01*
X008746Y003482D02*
X008746Y003192D01*
X008939Y003192D01*
X009040Y003192D02*
X009040Y003482D01*
X009185Y003482D01*
X009234Y003434D01*
X009234Y003337D01*
X009185Y003289D01*
X009040Y003289D01*
X009137Y003289D02*
X009234Y003192D01*
X008939Y003482D02*
X008746Y003482D01*
X008746Y003337D02*
X008842Y003337D01*
X008548Y003289D02*
X008451Y003192D01*
X005946Y008785D02*
X005753Y008785D01*
X005656Y008882D01*
X005753Y008979D01*
X005946Y008979D01*
X005801Y008979D02*
X005801Y008785D01*
X005656Y009080D02*
X005656Y009273D01*
X005656Y009177D02*
X005946Y009177D01*
X005753Y009375D02*
X005753Y009471D01*
X005704Y009423D02*
X005898Y009423D01*
X005946Y009471D01*
X005946Y009571D02*
X005946Y009668D01*
X005946Y009619D02*
X005753Y009619D01*
X005753Y009571D01*
X005656Y009619D02*
X005607Y009619D01*
X005753Y009767D02*
X005753Y009913D01*
X005801Y009961D01*
X005946Y009961D01*
X005898Y010062D02*
X005946Y010110D01*
X005946Y010256D01*
X005994Y010256D02*
X005753Y010256D01*
X005753Y010062D02*
X005898Y010062D01*
X006043Y010159D02*
X006043Y010207D01*
X005994Y010256D01*
X005801Y010651D02*
X005801Y010845D01*
X005801Y010946D02*
X005656Y010946D01*
X005656Y011139D01*
X005753Y011091D02*
X005801Y011139D01*
X005898Y011139D01*
X005946Y011091D01*
X005946Y010994D01*
X005898Y010946D01*
X005801Y010946D02*
X005753Y011043D01*
X005753Y011091D01*
X005946Y011241D02*
X005656Y011434D01*
X005704Y011535D02*
X005753Y011535D01*
X005801Y011584D01*
X005801Y011680D01*
X005849Y011729D01*
X005898Y011729D01*
X005946Y011680D01*
X005946Y011584D01*
X005898Y011535D01*
X005849Y011535D01*
X005801Y011584D01*
X005801Y011680D02*
X005753Y011729D01*
X005704Y011729D01*
X005656Y011680D01*
X005656Y011584D01*
X005704Y011535D01*
X005656Y011830D02*
X005801Y011830D01*
X005753Y011927D01*
X005753Y011975D01*
X005801Y012023D01*
X005898Y012023D01*
X005946Y011975D01*
X005946Y011878D01*
X005898Y011830D01*
X005656Y011830D02*
X005656Y012023D01*
X005656Y010796D02*
X005801Y010651D01*
X005946Y010796D02*
X005656Y010796D01*
X005753Y009767D02*
X005946Y009767D01*
X002586Y012896D02*
X002538Y012848D01*
X002345Y012848D01*
X002296Y012896D01*
X002296Y012993D01*
X002345Y013041D01*
X002345Y013142D02*
X002538Y013142D01*
X002586Y013191D01*
X002586Y013288D01*
X002538Y013336D01*
X002538Y013041D02*
X002586Y012993D01*
X002586Y012896D01*
X002345Y013142D02*
X002296Y013191D01*
X002296Y013288D01*
X002345Y013336D01*
X002296Y013732D02*
X002296Y013877D01*
X002345Y013925D01*
X002393Y013925D01*
X002441Y013877D01*
X002441Y013732D01*
X002586Y013732D02*
X002296Y013732D01*
X002441Y013877D02*
X002490Y013925D01*
X002538Y013925D01*
X002586Y013877D01*
X002586Y013732D01*
X002345Y014026D02*
X002441Y014123D01*
X002586Y014123D01*
X002441Y014123D02*
X002345Y014220D01*
X002296Y014220D01*
X002441Y014321D02*
X002441Y014514D01*
X002393Y014616D02*
X002441Y014664D01*
X002441Y014761D01*
X002490Y014809D01*
X002538Y014809D01*
X002586Y014761D01*
X002586Y014664D01*
X002538Y014616D01*
X002393Y014616D02*
X002345Y014616D01*
X002296Y014664D01*
X002296Y014761D01*
X002345Y014809D01*
X002393Y014910D02*
X002296Y015007D01*
X002393Y015104D01*
X002586Y015104D01*
X002441Y015104D02*
X002441Y014910D01*
X002393Y014910D02*
X002586Y014910D01*
X002538Y015500D02*
X002586Y015548D01*
X002586Y015645D01*
X002538Y015693D01*
X002490Y015693D01*
X002441Y015645D01*
X002441Y015596D01*
X002441Y015645D02*
X002393Y015693D01*
X002345Y015693D01*
X002296Y015645D01*
X002296Y015548D01*
X002345Y015500D01*
X002538Y015794D02*
X002538Y015843D01*
X002586Y015843D01*
X002586Y015794D01*
X002538Y015794D01*
X002538Y015942D02*
X002345Y016135D01*
X002538Y016135D01*
X002586Y016087D01*
X002586Y015990D01*
X002538Y015942D01*
X002345Y015942D01*
X002296Y015990D01*
X002296Y016087D01*
X002345Y016135D01*
X002296Y014026D02*
X002345Y014026D01*
D13*
X004959Y013422D02*
X005139Y013422D01*
X005254Y013467D02*
X005299Y013422D01*
X005434Y013422D01*
X005434Y013512D02*
X005389Y013557D01*
X005299Y013557D01*
X005254Y013512D01*
X005254Y013467D01*
X005254Y013332D02*
X005299Y013287D01*
X005389Y013287D01*
X005434Y013332D01*
X005434Y013512D01*
X005549Y013512D02*
X005549Y013332D01*
X005729Y013512D01*
X005729Y013332D01*
X005684Y013287D01*
X005594Y013287D01*
X005549Y013332D01*
X005549Y013512D02*
X005594Y013557D01*
X005684Y013557D01*
X005729Y013512D01*
X005843Y013557D02*
X005843Y013287D01*
X005843Y013377D02*
X005978Y013467D01*
X005843Y013377D02*
X005978Y013287D01*
X005094Y013287D02*
X005094Y013557D01*
X004959Y013422D01*
X005093Y015301D02*
X005273Y015301D01*
X005183Y015301D02*
X005183Y015572D01*
X005093Y015482D01*
X005388Y015527D02*
X005388Y015346D01*
X005568Y015527D01*
X005568Y015346D01*
X005523Y015301D01*
X005433Y015301D01*
X005388Y015346D01*
X005388Y015527D02*
X005433Y015572D01*
X005523Y015572D01*
X005568Y015527D01*
X005682Y015572D02*
X005682Y015301D01*
X005682Y015391D02*
X005817Y015482D01*
X005682Y015391D02*
X005817Y015301D01*
X010133Y014049D02*
X010235Y014049D01*
X010439Y014049D02*
X010846Y014049D01*
X010846Y013948D02*
X010846Y014151D01*
X010744Y014353D02*
X010540Y014353D01*
X010439Y014455D01*
X010439Y014658D01*
X010540Y014760D01*
X010642Y014760D01*
X010642Y014353D01*
X010744Y014353D02*
X010846Y014455D01*
X010846Y014658D01*
X010846Y014961D02*
X010846Y015266D01*
X010744Y015368D01*
X010642Y015266D01*
X010642Y015062D01*
X010540Y014961D01*
X010439Y015062D01*
X010439Y015368D01*
X010439Y014049D02*
X010439Y013948D01*
X010439Y013747D02*
X010439Y013645D01*
X010642Y013441D01*
X010439Y013441D02*
X010846Y013441D01*
X010846Y013240D02*
X010744Y013138D01*
X010337Y013138D01*
X010439Y013036D02*
X010439Y013240D01*
X010439Y012835D02*
X010439Y012530D01*
X010540Y012428D01*
X010642Y012530D01*
X010642Y012734D01*
X010744Y012835D01*
X010846Y012734D01*
X010846Y012428D01*
X010846Y012228D02*
X010439Y012228D01*
X010439Y011821D02*
X010744Y011821D01*
X010846Y011922D01*
X010846Y012228D01*
X010846Y011620D02*
X010846Y011315D01*
X010744Y011213D01*
X010540Y011213D01*
X010439Y011315D01*
X010439Y011620D01*
X010235Y011620D02*
X010846Y011620D01*
X010846Y011012D02*
X010540Y011012D01*
X010439Y010911D01*
X010439Y010605D01*
X010846Y010605D01*
X010846Y010404D02*
X010846Y010200D01*
X010846Y010302D02*
X010235Y010302D01*
X010235Y010200D02*
X010235Y010404D01*
X010540Y009392D02*
X010439Y009290D01*
X010439Y009086D01*
X010540Y008985D01*
X010439Y008784D02*
X010439Y008479D01*
X010540Y008377D01*
X010744Y008377D01*
X010846Y008479D01*
X010846Y008784D01*
X010846Y008985D02*
X010235Y008985D01*
X010540Y009392D02*
X010846Y009392D01*
X010642Y008176D02*
X010540Y008176D01*
X010439Y008075D01*
X010439Y007871D01*
X010540Y007769D01*
X010744Y007769D01*
X010846Y007871D01*
X010846Y008075D01*
X010642Y008176D02*
X010642Y007769D01*
X010846Y007365D02*
X010235Y007365D01*
X010235Y007162D02*
X010235Y007569D01*
X010540Y006353D02*
X010846Y006353D01*
X010540Y006353D02*
X010439Y006251D01*
X010439Y005946D01*
X010846Y005946D01*
X010846Y005745D02*
X010846Y005440D01*
X010744Y005338D01*
X010540Y005338D01*
X010439Y005440D01*
X010439Y005745D01*
X010947Y005745D01*
X011049Y005644D01*
X011049Y005542D01*
X010846Y005137D02*
X010846Y004933D01*
X010846Y005035D02*
X010439Y005035D01*
X010439Y004933D01*
X010439Y004733D02*
X010439Y004427D01*
X010540Y004326D01*
X010642Y004427D01*
X010642Y004631D01*
X010744Y004733D01*
X010846Y004631D01*
X010846Y004326D01*
X010642Y004125D02*
X010642Y003718D01*
X010744Y003718D02*
X010540Y003718D01*
X010439Y003820D01*
X010439Y004023D01*
X010540Y004125D01*
X010642Y004125D01*
X010846Y004023D02*
X010846Y003820D01*
X010744Y003718D01*
X010744Y003517D02*
X010337Y003517D01*
X010235Y003415D01*
X010235Y003110D01*
X010846Y003110D01*
X010846Y003415D01*
X010744Y003517D01*
X010235Y005035D02*
X010133Y005035D01*
X004778Y007701D02*
X004478Y007701D01*
X004628Y007701D02*
X004628Y008152D01*
X004478Y008002D01*
X004318Y008152D02*
X004167Y008152D01*
X004242Y008152D02*
X004242Y007776D01*
X004167Y007701D01*
X004092Y007701D01*
X004017Y007776D01*
D14*
X001641Y002160D02*
X001643Y002207D01*
X001649Y002253D01*
X001659Y002299D01*
X001672Y002344D01*
X001690Y002387D01*
X001711Y002429D01*
X001735Y002469D01*
X001763Y002506D01*
X001794Y002541D01*
X001828Y002574D01*
X001864Y002603D01*
X001903Y002629D01*
X001944Y002652D01*
X001987Y002671D01*
X002031Y002687D01*
X002076Y002699D01*
X002122Y002707D01*
X002169Y002711D01*
X002215Y002711D01*
X002262Y002707D01*
X002308Y002699D01*
X002353Y002687D01*
X002397Y002671D01*
X002440Y002652D01*
X002481Y002629D01*
X002520Y002603D01*
X002556Y002574D01*
X002590Y002541D01*
X002621Y002506D01*
X002649Y002469D01*
X002673Y002429D01*
X002694Y002387D01*
X002712Y002344D01*
X002725Y002299D01*
X002735Y002253D01*
X002741Y002207D01*
X002743Y002160D01*
X002741Y002113D01*
X002735Y002067D01*
X002725Y002021D01*
X002712Y001976D01*
X002694Y001933D01*
X002673Y001891D01*
X002649Y001851D01*
X002621Y001814D01*
X002590Y001779D01*
X002556Y001746D01*
X002520Y001717D01*
X002481Y001691D01*
X002440Y001668D01*
X002397Y001649D01*
X002353Y001633D01*
X002308Y001621D01*
X002262Y001613D01*
X002215Y001609D01*
X002169Y001609D01*
X002122Y001613D01*
X002076Y001621D01*
X002031Y001633D01*
X001987Y001649D01*
X001944Y001668D01*
X001903Y001691D01*
X001864Y001717D01*
X001828Y001746D01*
X001794Y001779D01*
X001763Y001814D01*
X001735Y001851D01*
X001711Y001891D01*
X001690Y001933D01*
X001672Y001976D01*
X001659Y002021D01*
X001649Y002067D01*
X001643Y002113D01*
X001641Y002160D01*
X009441Y002143D02*
X009443Y002190D01*
X009449Y002236D01*
X009459Y002282D01*
X009472Y002327D01*
X009490Y002370D01*
X009511Y002412D01*
X009535Y002452D01*
X009563Y002489D01*
X009594Y002524D01*
X009628Y002557D01*
X009664Y002586D01*
X009703Y002612D01*
X009744Y002635D01*
X009787Y002654D01*
X009831Y002670D01*
X009876Y002682D01*
X009922Y002690D01*
X009969Y002694D01*
X010015Y002694D01*
X010062Y002690D01*
X010108Y002682D01*
X010153Y002670D01*
X010197Y002654D01*
X010240Y002635D01*
X010281Y002612D01*
X010320Y002586D01*
X010356Y002557D01*
X010390Y002524D01*
X010421Y002489D01*
X010449Y002452D01*
X010473Y002412D01*
X010494Y002370D01*
X010512Y002327D01*
X010525Y002282D01*
X010535Y002236D01*
X010541Y002190D01*
X010543Y002143D01*
X010541Y002096D01*
X010535Y002050D01*
X010525Y002004D01*
X010512Y001959D01*
X010494Y001916D01*
X010473Y001874D01*
X010449Y001834D01*
X010421Y001797D01*
X010390Y001762D01*
X010356Y001729D01*
X010320Y001700D01*
X010281Y001674D01*
X010240Y001651D01*
X010197Y001632D01*
X010153Y001616D01*
X010108Y001604D01*
X010062Y001596D01*
X010015Y001592D01*
X009969Y001592D01*
X009922Y001596D01*
X009876Y001604D01*
X009831Y001616D01*
X009787Y001632D01*
X009744Y001651D01*
X009703Y001674D01*
X009664Y001700D01*
X009628Y001729D01*
X009594Y001762D01*
X009563Y001797D01*
X009535Y001834D01*
X009511Y001874D01*
X009490Y001916D01*
X009472Y001959D01*
X009459Y002004D01*
X009449Y002050D01*
X009443Y002096D01*
X009441Y002143D01*
X007941Y016926D02*
X007943Y016973D01*
X007949Y017019D01*
X007959Y017065D01*
X007972Y017110D01*
X007990Y017153D01*
X008011Y017195D01*
X008035Y017235D01*
X008063Y017272D01*
X008094Y017307D01*
X008128Y017340D01*
X008164Y017369D01*
X008203Y017395D01*
X008244Y017418D01*
X008287Y017437D01*
X008331Y017453D01*
X008376Y017465D01*
X008422Y017473D01*
X008469Y017477D01*
X008515Y017477D01*
X008562Y017473D01*
X008608Y017465D01*
X008653Y017453D01*
X008697Y017437D01*
X008740Y017418D01*
X008781Y017395D01*
X008820Y017369D01*
X008856Y017340D01*
X008890Y017307D01*
X008921Y017272D01*
X008949Y017235D01*
X008973Y017195D01*
X008994Y017153D01*
X009012Y017110D01*
X009025Y017065D01*
X009035Y017019D01*
X009041Y016973D01*
X009043Y016926D01*
X009041Y016879D01*
X009035Y016833D01*
X009025Y016787D01*
X009012Y016742D01*
X008994Y016699D01*
X008973Y016657D01*
X008949Y016617D01*
X008921Y016580D01*
X008890Y016545D01*
X008856Y016512D01*
X008820Y016483D01*
X008781Y016457D01*
X008740Y016434D01*
X008697Y016415D01*
X008653Y016399D01*
X008608Y016387D01*
X008562Y016379D01*
X008515Y016375D01*
X008469Y016375D01*
X008422Y016379D01*
X008376Y016387D01*
X008331Y016399D01*
X008287Y016415D01*
X008244Y016434D01*
X008203Y016457D01*
X008164Y016483D01*
X008128Y016512D01*
X008094Y016545D01*
X008063Y016580D01*
X008035Y016617D01*
X008011Y016657D01*
X007990Y016699D01*
X007972Y016742D01*
X007959Y016787D01*
X007949Y016833D01*
X007943Y016879D01*
X007941Y016926D01*
X002941Y016926D02*
X002943Y016973D01*
X002949Y017019D01*
X002959Y017065D01*
X002972Y017110D01*
X002990Y017153D01*
X003011Y017195D01*
X003035Y017235D01*
X003063Y017272D01*
X003094Y017307D01*
X003128Y017340D01*
X003164Y017369D01*
X003203Y017395D01*
X003244Y017418D01*
X003287Y017437D01*
X003331Y017453D01*
X003376Y017465D01*
X003422Y017473D01*
X003469Y017477D01*
X003515Y017477D01*
X003562Y017473D01*
X003608Y017465D01*
X003653Y017453D01*
X003697Y017437D01*
X003740Y017418D01*
X003781Y017395D01*
X003820Y017369D01*
X003856Y017340D01*
X003890Y017307D01*
X003921Y017272D01*
X003949Y017235D01*
X003973Y017195D01*
X003994Y017153D01*
X004012Y017110D01*
X004025Y017065D01*
X004035Y017019D01*
X004041Y016973D01*
X004043Y016926D01*
X004041Y016879D01*
X004035Y016833D01*
X004025Y016787D01*
X004012Y016742D01*
X003994Y016699D01*
X003973Y016657D01*
X003949Y016617D01*
X003921Y016580D01*
X003890Y016545D01*
X003856Y016512D01*
X003820Y016483D01*
X003781Y016457D01*
X003740Y016434D01*
X003697Y016415D01*
X003653Y016399D01*
X003608Y016387D01*
X003562Y016379D01*
X003515Y016375D01*
X003469Y016375D01*
X003422Y016379D01*
X003376Y016387D01*
X003331Y016399D01*
X003287Y016415D01*
X003244Y016434D01*
X003203Y016457D01*
X003164Y016483D01*
X003128Y016512D01*
X003094Y016545D01*
X003063Y016580D01*
X003035Y016617D01*
X003011Y016657D01*
X002990Y016699D01*
X002972Y016742D01*
X002959Y016787D01*
X002949Y016833D01*
X002943Y016879D01*
X002941Y016926D01*
D15*
X001710Y012026D02*
X001637Y011952D01*
X001563Y011916D02*
X001563Y011806D01*
X001637Y011806D02*
X001784Y011806D01*
X001710Y011806D02*
X001710Y012026D01*
X001563Y011916D02*
X001526Y011952D01*
X001416Y011952D01*
X001416Y011806D01*
X001342Y011806D02*
X001269Y011806D01*
X001305Y011806D02*
X001305Y011952D01*
X001269Y011952D01*
X001305Y012026D02*
X001305Y012062D01*
X001194Y011989D02*
X001194Y011916D01*
X001158Y011879D01*
X001048Y011879D01*
X001048Y011806D02*
X001048Y012026D01*
X001158Y012026D01*
X001194Y011989D01*
X001278Y011097D02*
X001278Y011060D01*
X001278Y010986D02*
X001278Y010840D01*
X001242Y010840D02*
X001315Y010840D01*
X001389Y010840D02*
X001389Y010986D01*
X001499Y010986D01*
X001536Y010950D01*
X001536Y010840D01*
X001610Y010840D02*
X001757Y010986D01*
X001757Y011023D01*
X001720Y011060D01*
X001647Y011060D01*
X001610Y011023D01*
X001610Y010840D02*
X001757Y010840D01*
X001278Y010986D02*
X001242Y010986D01*
X001167Y010950D02*
X001131Y010913D01*
X001021Y010913D01*
X001021Y010840D02*
X001021Y011060D01*
X001131Y011060D01*
X001167Y011023D01*
X001167Y010950D01*
X001323Y010050D02*
X001323Y010013D01*
X001323Y009940D02*
X001286Y009940D01*
X001323Y009940D02*
X001323Y009793D01*
X001359Y009793D02*
X001286Y009793D01*
X001212Y009903D02*
X001175Y009867D01*
X001065Y009867D01*
X001065Y009793D02*
X001065Y010013D01*
X001175Y010013D01*
X001212Y009977D01*
X001212Y009903D01*
X001433Y009940D02*
X001543Y009940D01*
X001580Y009903D01*
X001580Y009793D01*
X001654Y009830D02*
X001691Y009793D01*
X001764Y009793D01*
X001801Y009830D01*
X001801Y009867D01*
X001764Y009903D01*
X001728Y009903D01*
X001764Y009903D02*
X001801Y009940D01*
X001801Y009977D01*
X001764Y010013D01*
X001691Y010013D01*
X001654Y009977D01*
X001433Y009940D02*
X001433Y009793D01*
X001321Y009064D02*
X001321Y009027D01*
X001321Y008953D02*
X001321Y008807D01*
X001284Y008807D02*
X001358Y008807D01*
X001431Y008807D02*
X001431Y008953D01*
X001542Y008953D01*
X001578Y008917D01*
X001578Y008807D01*
X001652Y008917D02*
X001799Y008917D01*
X001763Y008807D02*
X001763Y009027D01*
X001652Y008917D01*
X001321Y008953D02*
X001284Y008953D01*
X001210Y008917D02*
X001173Y008880D01*
X001063Y008880D01*
X001063Y008807D02*
X001063Y009027D01*
X001173Y009027D01*
X001210Y008990D01*
X001210Y008917D01*
X004111Y005189D02*
X004111Y004969D01*
X004258Y004969D02*
X004258Y005189D01*
X004185Y005116D01*
X004111Y005189D01*
X004332Y005189D02*
X004406Y005189D01*
X004369Y005189D02*
X004369Y004969D01*
X004332Y004969D02*
X004406Y004969D01*
X004480Y005006D02*
X004516Y004969D01*
X004590Y004969D01*
X004626Y005006D01*
X004626Y005042D01*
X004590Y005079D01*
X004516Y005079D01*
X004480Y005116D01*
X004480Y005152D01*
X004516Y005189D01*
X004590Y005189D01*
X004626Y005152D01*
X004701Y005152D02*
X004701Y005006D01*
X004737Y004969D01*
X004811Y004969D01*
X004847Y005006D01*
X004847Y005152D01*
X004811Y005189D01*
X004737Y005189D01*
X004701Y005152D01*
X005218Y005126D02*
X005254Y005089D01*
X005328Y005089D01*
X005364Y005126D01*
X005364Y005163D01*
X005328Y005199D01*
X005254Y005199D01*
X005218Y005236D01*
X005218Y005273D01*
X005254Y005310D01*
X005328Y005310D01*
X005364Y005273D01*
X005439Y005273D02*
X005439Y005126D01*
X005475Y005089D01*
X005549Y005089D01*
X005585Y005126D01*
X005660Y005089D02*
X005660Y005310D01*
X005585Y005273D02*
X005549Y005310D01*
X005475Y005310D01*
X005439Y005273D01*
X005660Y005163D02*
X005806Y005310D01*
X005696Y005199D02*
X005806Y005089D01*
X006211Y005097D02*
X006211Y005317D01*
X006321Y005317D01*
X006358Y005280D01*
X006358Y005207D01*
X006321Y005170D01*
X006211Y005170D01*
X006284Y005170D02*
X006358Y005097D01*
X006432Y005097D02*
X006579Y005097D01*
X006653Y005134D02*
X006690Y005097D01*
X006763Y005097D01*
X006800Y005134D01*
X006800Y005170D01*
X006763Y005207D01*
X006690Y005207D01*
X006653Y005244D01*
X006653Y005280D01*
X006690Y005317D01*
X006763Y005317D01*
X006800Y005280D01*
X006579Y005317D02*
X006432Y005317D01*
X006432Y005097D01*
X006432Y005207D02*
X006505Y005207D01*
X006432Y007574D02*
X006432Y007794D01*
X006579Y007574D01*
X006579Y007794D01*
X006653Y007794D02*
X006763Y007794D01*
X006800Y007757D01*
X006800Y007611D01*
X006763Y007574D01*
X006653Y007574D01*
X006653Y007794D01*
X006358Y007757D02*
X006321Y007794D01*
X006248Y007794D01*
X006211Y007757D01*
X006211Y007611D01*
X006248Y007574D01*
X006321Y007574D01*
X006358Y007611D01*
X006358Y007684D01*
X006284Y007684D01*
X005849Y007786D02*
X005775Y007786D01*
X005812Y007786D02*
X005812Y007566D01*
X005775Y007566D02*
X005849Y007566D01*
X005701Y007603D02*
X005664Y007566D01*
X005591Y007566D01*
X005554Y007603D01*
X005480Y007603D02*
X005443Y007566D01*
X005370Y007566D01*
X005333Y007603D01*
X005333Y007750D01*
X005370Y007786D01*
X005443Y007786D01*
X005480Y007750D01*
X005480Y007603D01*
X005554Y007713D02*
X005591Y007676D01*
X005664Y007676D01*
X005701Y007640D01*
X005701Y007603D01*
X005701Y007750D02*
X005664Y007786D01*
X005591Y007786D01*
X005554Y007750D01*
X005554Y007713D01*
X005259Y007786D02*
X005259Y007566D01*
X005112Y007566D02*
X005112Y007786D01*
X005186Y007713D01*
X005259Y007786D01*
X004637Y007801D02*
X004490Y007801D01*
X004490Y007691D01*
X004564Y007728D01*
X004601Y007728D01*
X004637Y007691D01*
X004637Y007618D01*
X004601Y007581D01*
X004527Y007581D01*
X004490Y007618D01*
X004416Y007691D02*
X004269Y007691D01*
X004343Y007618D02*
X004343Y007765D01*
X009225Y008822D02*
X009225Y009042D01*
X009335Y009042D01*
X009371Y009006D01*
X009371Y008932D01*
X009335Y008896D01*
X009225Y008896D01*
X009446Y008969D02*
X009482Y008969D01*
X009482Y008822D01*
X009446Y008822D02*
X009519Y008822D01*
X009593Y008822D02*
X009593Y008969D01*
X009703Y008969D01*
X009740Y008932D01*
X009740Y008822D01*
X009814Y008859D02*
X009851Y008822D01*
X009924Y008822D01*
X009961Y008859D01*
X009961Y008932D01*
X009924Y008969D01*
X009887Y008969D01*
X009814Y008932D01*
X009814Y009042D01*
X009961Y009042D01*
X009482Y009042D02*
X009482Y009079D01*
X009482Y009806D02*
X009482Y009953D01*
X009446Y009953D01*
X009482Y010026D02*
X009482Y010063D01*
X009371Y009990D02*
X009371Y009916D01*
X009335Y009880D01*
X009225Y009880D01*
X009225Y009806D02*
X009225Y010026D01*
X009335Y010026D01*
X009371Y009990D01*
X009446Y009806D02*
X009519Y009806D01*
X009593Y009806D02*
X009593Y009953D01*
X009703Y009953D01*
X009740Y009916D01*
X009740Y009806D01*
X009814Y009843D02*
X009851Y009806D01*
X009924Y009806D01*
X009961Y009843D01*
X009961Y009880D01*
X009924Y009916D01*
X009814Y009916D01*
X009814Y009843D01*
X009814Y009916D02*
X009887Y009990D01*
X009961Y010026D01*
X009814Y010806D02*
X009814Y010843D01*
X009961Y010989D01*
X009961Y011026D01*
X009814Y011026D01*
X009740Y010916D02*
X009740Y010806D01*
X009740Y010916D02*
X009703Y010953D01*
X009593Y010953D01*
X009593Y010806D01*
X009519Y010806D02*
X009446Y010806D01*
X009482Y010806D02*
X009482Y010953D01*
X009446Y010953D01*
X009482Y011026D02*
X009482Y011063D01*
X009371Y010989D02*
X009371Y010916D01*
X009335Y010879D01*
X009225Y010879D01*
X009225Y010806D02*
X009225Y011026D01*
X009335Y011026D01*
X009371Y010989D01*
X009446Y011821D02*
X009519Y011821D01*
X009482Y011821D02*
X009482Y011968D01*
X009446Y011968D01*
X009482Y012041D02*
X009482Y012078D01*
X009371Y012005D02*
X009371Y011931D01*
X009335Y011895D01*
X009225Y011895D01*
X009225Y011821D02*
X009225Y012041D01*
X009335Y012041D01*
X009371Y012005D01*
X009593Y011968D02*
X009593Y011821D01*
X009740Y011821D02*
X009740Y011931D01*
X009703Y011968D01*
X009593Y011968D01*
X009814Y011968D02*
X009851Y011931D01*
X009924Y011931D01*
X009961Y011895D01*
X009961Y011858D01*
X009924Y011821D01*
X009851Y011821D01*
X009814Y011858D01*
X009814Y011895D01*
X009851Y011931D01*
X009814Y011968D02*
X009814Y012005D01*
X009851Y012041D01*
X009924Y012041D01*
X009961Y012005D01*
X009961Y011968D01*
X009924Y011931D01*
D16*
X009051Y012790D02*
X008531Y012790D01*
X008531Y013050D01*
X008617Y013137D01*
X008791Y013137D01*
X008877Y013050D01*
X008877Y012790D01*
X008877Y012964D02*
X009051Y013137D01*
X008964Y013306D02*
X008791Y013306D01*
X008704Y013393D01*
X008704Y013566D01*
X008791Y013653D01*
X008877Y013653D01*
X008877Y013306D01*
X008964Y013306D02*
X009051Y013393D01*
X009051Y013566D01*
X009051Y013995D02*
X008704Y014168D01*
X008704Y013822D02*
X009051Y013995D01*
X008964Y014853D02*
X008617Y014853D01*
X008531Y014940D01*
X008531Y015113D01*
X008617Y015200D01*
X008964Y014853D01*
X009051Y014940D01*
X009051Y015113D01*
X008964Y015200D01*
X008617Y015200D01*
X008964Y015368D02*
X008964Y015455D01*
X009051Y015455D01*
X009051Y015368D01*
X008964Y015368D01*
X009051Y015626D02*
X009051Y015973D01*
X009051Y015800D02*
X008531Y015800D01*
X008704Y015626D01*
X008719Y002940D02*
X008489Y002710D01*
X008566Y002633D02*
X008259Y002940D01*
X008259Y002633D02*
X008719Y002633D01*
X008719Y002480D02*
X008719Y002173D01*
X008259Y002173D01*
X008336Y002019D02*
X008413Y002019D01*
X008489Y001942D01*
X008489Y001712D01*
X008719Y001712D02*
X008259Y001712D01*
X008259Y001942D01*
X008336Y002019D01*
X008489Y001942D02*
X008566Y002019D01*
X008643Y002019D01*
X008719Y001942D01*
X008719Y001712D01*
X003714Y001779D02*
X003714Y001933D01*
X003637Y002010D01*
X003484Y002010D01*
X003484Y001856D01*
X003637Y001703D02*
X003714Y001779D01*
X003637Y001703D02*
X003330Y001703D01*
X003254Y001779D01*
X003254Y001933D01*
X003330Y002010D01*
X003254Y002163D02*
X003254Y002393D01*
X003330Y002470D01*
X003484Y002470D01*
X003560Y002393D01*
X003560Y002163D01*
X003560Y002316D02*
X003714Y002470D01*
X003714Y002623D02*
X003254Y002623D01*
X003714Y002930D01*
X003254Y002930D01*
X003254Y002163D02*
X003714Y002163D01*
D17*
X003736Y001430D02*
X003236Y001430D01*
X002986Y001180D01*
X002986Y000680D01*
X003236Y000430D01*
X003736Y000430D01*
X003986Y000680D01*
X004236Y000430D01*
X004736Y000430D01*
X004986Y000680D01*
X005236Y000430D01*
X005736Y000430D01*
X005986Y000680D01*
X006236Y000430D01*
X006736Y000430D01*
X006986Y000680D01*
X007236Y000430D01*
X007736Y000430D01*
X007986Y000680D01*
X008236Y000430D01*
X008736Y000430D01*
X008986Y000680D01*
X008986Y001180D01*
X008736Y001430D01*
X008236Y001430D01*
X007986Y001180D01*
X007736Y001430D01*
X007236Y001430D01*
X006986Y001180D01*
X006736Y001430D01*
X006236Y001430D01*
X005986Y001180D01*
X005736Y001430D01*
X005236Y001430D01*
X004986Y001180D01*
X004736Y001430D01*
X004236Y001430D01*
X003986Y001180D01*
X003736Y001430D01*
X004642Y002226D02*
X006342Y002226D01*
X006692Y003022D02*
X006692Y003826D01*
X006342Y004626D02*
X004642Y004626D01*
X004742Y005295D02*
X004242Y005295D01*
X004242Y005426D02*
X004742Y005426D01*
X004992Y005676D01*
X004992Y007176D01*
X005242Y007426D01*
X005742Y007426D01*
X005992Y007176D01*
X005992Y005676D01*
X006242Y005426D01*
X006742Y005426D01*
X006992Y005676D01*
X006992Y007176D01*
X006742Y007426D01*
X006242Y007426D01*
X005992Y007176D01*
X006492Y008426D02*
X004492Y008426D01*
X004492Y012426D01*
X004892Y012426D01*
X005092Y012426D01*
X004892Y012426D02*
X006492Y012426D01*
X006492Y008426D01*
X007992Y008676D02*
X007992Y009176D01*
X008242Y009426D01*
X007992Y009676D01*
X007992Y010176D01*
X008242Y010426D01*
X007992Y010676D01*
X007992Y011176D01*
X008242Y011426D01*
X007992Y011676D01*
X007992Y012176D01*
X008242Y012426D01*
X008742Y012426D01*
X008992Y012176D01*
X008992Y011676D01*
X008742Y011426D01*
X008992Y011176D01*
X008992Y010676D01*
X008742Y010426D01*
X008992Y010176D01*
X008992Y009676D01*
X008742Y009426D01*
X008992Y009176D01*
X008992Y008676D01*
X008742Y008426D01*
X008242Y008426D01*
X007992Y008676D01*
X007492Y005676D02*
X007492Y004176D01*
X005992Y005676D02*
X005742Y005426D01*
X005242Y005426D01*
X004992Y005676D01*
X004242Y005426D02*
X003992Y005676D01*
X003992Y007176D01*
X004242Y007426D01*
X004742Y007426D01*
X004992Y007176D01*
X002992Y008676D02*
X002742Y008426D01*
X002242Y008426D01*
X001992Y008676D01*
X001992Y009176D01*
X002242Y009426D01*
X001992Y009676D01*
X001992Y010176D01*
X002242Y010426D01*
X001992Y010676D01*
X001992Y011176D01*
X002242Y011426D01*
X001992Y011676D01*
X001992Y012176D01*
X002242Y012426D01*
X002742Y012426D01*
X002992Y012176D01*
X002992Y011676D01*
X002742Y011426D01*
X002992Y011176D01*
X002992Y010676D01*
X002742Y010426D01*
X002992Y010176D01*
X002992Y009676D01*
X002742Y009426D01*
X002992Y009176D01*
X002992Y008676D01*
X001212Y004926D02*
X001214Y004997D01*
X001220Y005068D01*
X001230Y005139D01*
X001244Y005208D01*
X001261Y005277D01*
X001283Y005345D01*
X001308Y005412D01*
X001337Y005477D01*
X001369Y005540D01*
X001405Y005602D01*
X001444Y005661D01*
X001487Y005718D01*
X001532Y005773D01*
X001581Y005825D01*
X001632Y005874D01*
X001686Y005920D01*
X001743Y005964D01*
X001801Y006004D01*
X001862Y006040D01*
X001925Y006074D01*
X001990Y006103D01*
X002056Y006129D01*
X002124Y006152D01*
X002192Y006170D01*
X002262Y006185D01*
X002332Y006196D01*
X002403Y006203D01*
X002474Y006206D01*
X002545Y006205D01*
X002616Y006200D01*
X002687Y006191D01*
X002757Y006178D01*
X002826Y006162D01*
X002894Y006141D01*
X002961Y006117D01*
X003027Y006089D01*
X003090Y006057D01*
X003152Y006022D01*
X003212Y005984D01*
X003270Y005942D01*
X003325Y005898D01*
X003378Y005850D01*
X003428Y005799D01*
X003475Y005746D01*
X003519Y005690D01*
X003560Y005632D01*
X003598Y005571D01*
X003632Y005509D01*
X003662Y005444D01*
X003689Y005379D01*
X003713Y005311D01*
X003732Y005243D01*
X003748Y005174D01*
X003760Y005103D01*
X003768Y005033D01*
X003772Y004962D01*
X003772Y004890D01*
X003768Y004819D01*
X003760Y004749D01*
X003748Y004678D01*
X003732Y004609D01*
X003713Y004541D01*
X003689Y004473D01*
X003662Y004408D01*
X003632Y004343D01*
X003598Y004281D01*
X003560Y004220D01*
X003519Y004162D01*
X003475Y004106D01*
X003428Y004053D01*
X003378Y004002D01*
X003325Y003954D01*
X003270Y003910D01*
X003212Y003868D01*
X003152Y003830D01*
X003090Y003795D01*
X003027Y003763D01*
X002961Y003735D01*
X002894Y003711D01*
X002826Y003690D01*
X002757Y003674D01*
X002687Y003661D01*
X002616Y003652D01*
X002545Y003647D01*
X002474Y003646D01*
X002403Y003649D01*
X002332Y003656D01*
X002262Y003667D01*
X002192Y003682D01*
X002124Y003700D01*
X002056Y003723D01*
X001990Y003749D01*
X001925Y003778D01*
X001862Y003812D01*
X001801Y003848D01*
X001743Y003888D01*
X001686Y003932D01*
X001632Y003978D01*
X001581Y004027D01*
X001532Y004079D01*
X001487Y004134D01*
X001444Y004191D01*
X001405Y004250D01*
X001369Y004312D01*
X001337Y004375D01*
X001308Y004440D01*
X001283Y004507D01*
X001261Y004575D01*
X001244Y004644D01*
X001230Y004713D01*
X001220Y004784D01*
X001214Y004855D01*
X001212Y004926D01*
X001992Y004676D02*
X001992Y004176D01*
X004292Y003826D02*
X004292Y003034D01*
X004792Y003426D02*
X004794Y003478D01*
X004800Y003530D01*
X004810Y003582D01*
X004823Y003632D01*
X004840Y003682D01*
X004861Y003730D01*
X004886Y003776D01*
X004914Y003820D01*
X004945Y003862D01*
X004979Y003902D01*
X005016Y003939D01*
X005056Y003973D01*
X005098Y004004D01*
X005142Y004032D01*
X005188Y004057D01*
X005236Y004078D01*
X005286Y004095D01*
X005336Y004108D01*
X005388Y004118D01*
X005440Y004124D01*
X005492Y004126D01*
X005544Y004124D01*
X005596Y004118D01*
X005648Y004108D01*
X005698Y004095D01*
X005748Y004078D01*
X005796Y004057D01*
X005842Y004032D01*
X005886Y004004D01*
X005928Y003973D01*
X005968Y003939D01*
X006005Y003902D01*
X006039Y003862D01*
X006070Y003820D01*
X006098Y003776D01*
X006123Y003730D01*
X006144Y003682D01*
X006161Y003632D01*
X006174Y003582D01*
X006184Y003530D01*
X006190Y003478D01*
X006192Y003426D01*
X006190Y003374D01*
X006184Y003322D01*
X006174Y003270D01*
X006161Y003220D01*
X006144Y003170D01*
X006123Y003122D01*
X006098Y003076D01*
X006070Y003032D01*
X006039Y002990D01*
X006005Y002950D01*
X005968Y002913D01*
X005928Y002879D01*
X005886Y002848D01*
X005842Y002820D01*
X005796Y002795D01*
X005748Y002774D01*
X005698Y002757D01*
X005648Y002744D01*
X005596Y002734D01*
X005544Y002728D01*
X005492Y002726D01*
X005440Y002728D01*
X005388Y002734D01*
X005336Y002744D01*
X005286Y002757D01*
X005236Y002774D01*
X005188Y002795D01*
X005142Y002820D01*
X005098Y002848D01*
X005056Y002879D01*
X005016Y002913D01*
X004979Y002950D01*
X004945Y002990D01*
X004914Y003032D01*
X004886Y003076D01*
X004861Y003122D01*
X004840Y003170D01*
X004823Y003220D01*
X004810Y003270D01*
X004800Y003322D01*
X004794Y003374D01*
X004792Y003426D01*
X004252Y012954D02*
X006732Y012954D01*
X006732Y013899D01*
X004252Y013899D01*
X004252Y012954D01*
X005492Y014176D02*
X005492Y014676D01*
X006732Y014954D02*
X004252Y014954D01*
X004252Y015899D01*
X006732Y015899D01*
X006732Y014954D01*
D18*
X004709Y011926D02*
X004711Y011959D01*
X004717Y011992D01*
X004727Y012025D01*
X004740Y012055D01*
X004757Y012084D01*
X004778Y012111D01*
X004801Y012135D01*
X004827Y012156D01*
X004855Y012174D01*
X004886Y012188D01*
X004917Y012199D01*
X004950Y012206D01*
X004984Y012209D01*
X005017Y012208D01*
X005050Y012203D01*
X005083Y012194D01*
X005114Y012181D01*
X005143Y012165D01*
X005170Y012146D01*
X005195Y012123D01*
X005217Y012098D01*
X005236Y012070D01*
X005251Y012040D01*
X005263Y012009D01*
X005271Y011976D01*
X005275Y011943D01*
X005275Y011909D01*
X005271Y011876D01*
X005263Y011843D01*
X005251Y011812D01*
X005236Y011782D01*
X005217Y011754D01*
X005195Y011729D01*
X005170Y011706D01*
X005143Y011687D01*
X005114Y011671D01*
X005083Y011658D01*
X005050Y011649D01*
X005017Y011644D01*
X004984Y011643D01*
X004950Y011646D01*
X004917Y011653D01*
X004886Y011664D01*
X004855Y011678D01*
X004827Y011696D01*
X004801Y011717D01*
X004778Y011741D01*
X004757Y011768D01*
X004740Y011797D01*
X004727Y011827D01*
X004717Y011860D01*
X004711Y011893D01*
X004709Y011926D01*
D19*
X007492Y004926D02*
X007494Y004989D01*
X007500Y005051D01*
X007510Y005113D01*
X007523Y005175D01*
X007541Y005235D01*
X007562Y005294D01*
X007587Y005352D01*
X007616Y005408D01*
X007648Y005462D01*
X007683Y005514D01*
X007721Y005563D01*
X007763Y005611D01*
X007807Y005655D01*
X007855Y005697D01*
X007904Y005735D01*
X007956Y005770D01*
X008010Y005802D01*
X008066Y005831D01*
X008124Y005856D01*
X008183Y005877D01*
X008243Y005895D01*
X008305Y005908D01*
X008367Y005918D01*
X008429Y005924D01*
X008492Y005926D01*
X008555Y005924D01*
X008617Y005918D01*
X008679Y005908D01*
X008741Y005895D01*
X008801Y005877D01*
X008860Y005856D01*
X008918Y005831D01*
X008974Y005802D01*
X009028Y005770D01*
X009080Y005735D01*
X009129Y005697D01*
X009177Y005655D01*
X009221Y005611D01*
X009263Y005563D01*
X009301Y005514D01*
X009336Y005462D01*
X009368Y005408D01*
X009397Y005352D01*
X009422Y005294D01*
X009443Y005235D01*
X009461Y005175D01*
X009474Y005113D01*
X009484Y005051D01*
X009490Y004989D01*
X009492Y004926D01*
X009490Y004863D01*
X009484Y004801D01*
X009474Y004739D01*
X009461Y004677D01*
X009443Y004617D01*
X009422Y004558D01*
X009397Y004500D01*
X009368Y004444D01*
X009336Y004390D01*
X009301Y004338D01*
X009263Y004289D01*
X009221Y004241D01*
X009177Y004197D01*
X009129Y004155D01*
X009080Y004117D01*
X009028Y004082D01*
X008974Y004050D01*
X008918Y004021D01*
X008860Y003996D01*
X008801Y003975D01*
X008741Y003957D01*
X008679Y003944D01*
X008617Y003934D01*
X008555Y003928D01*
X008492Y003926D01*
X008429Y003928D01*
X008367Y003934D01*
X008305Y003944D01*
X008243Y003957D01*
X008183Y003975D01*
X008124Y003996D01*
X008066Y004021D01*
X008010Y004050D01*
X007956Y004082D01*
X007904Y004117D01*
X007855Y004155D01*
X007807Y004197D01*
X007763Y004241D01*
X007721Y004289D01*
X007683Y004338D01*
X007648Y004390D01*
X007616Y004444D01*
X007587Y004500D01*
X007562Y004558D01*
X007541Y004617D01*
X007523Y004677D01*
X007510Y004739D01*
X007500Y004801D01*
X007494Y004863D01*
X007492Y004926D01*
D20*
X001755Y013858D02*
X001611Y013858D01*
X001591Y014048D01*
X001527Y014069D01*
X001468Y014100D01*
X001319Y013979D01*
X001217Y014080D01*
X001338Y014229D01*
X001308Y014288D01*
X001287Y014353D01*
X001097Y014372D01*
X001097Y014516D01*
X001287Y014535D01*
X001308Y014599D01*
X001338Y014659D01*
X001217Y014807D01*
X001319Y014909D01*
X001468Y014788D01*
X001527Y014819D01*
X001591Y014839D01*
X001611Y015030D01*
X001755Y015030D01*
X001774Y014839D01*
X001838Y014819D01*
X001898Y014788D01*
X002046Y014909D01*
X002148Y014807D01*
X002027Y014659D01*
X002058Y014599D01*
X001853Y014514D01*
X001832Y014553D01*
X001801Y014585D01*
X001764Y014609D01*
X001723Y014624D01*
X001679Y014628D01*
X001635Y014622D01*
X001594Y014606D01*
X001558Y014580D01*
X001529Y014546D01*
X001509Y014507D01*
X001499Y014464D01*
X001500Y014420D01*
X001511Y014377D01*
X001532Y014338D01*
X001561Y014305D01*
X001598Y014280D01*
X001639Y014265D01*
X001683Y014259D01*
X001726Y014264D01*
X001766Y014279D01*
X001803Y014304D01*
X001832Y014335D01*
X001853Y014373D01*
X002058Y014288D01*
X002027Y014229D01*
X002148Y014080D01*
X002046Y013979D01*
X001898Y014100D01*
X001838Y014069D01*
X001774Y014048D01*
X001755Y013858D01*
X001758Y013895D02*
X001607Y013895D01*
X001601Y013952D02*
X001764Y013952D01*
X001770Y014010D02*
X001595Y014010D01*
X001531Y014068D02*
X001834Y014068D01*
X001937Y014068D02*
X002135Y014068D01*
X002112Y014125D02*
X001254Y014125D01*
X001230Y014068D02*
X001428Y014068D01*
X001358Y014010D02*
X001288Y014010D01*
X001301Y014183D02*
X002065Y014183D01*
X002033Y014240D02*
X001332Y014240D01*
X001305Y014298D02*
X001572Y014298D01*
X001522Y014356D02*
X001258Y014356D01*
X001097Y014413D02*
X001502Y014413D01*
X001501Y014471D02*
X001097Y014471D01*
X001219Y014528D02*
X001520Y014528D01*
X001566Y014586D02*
X001303Y014586D01*
X001330Y014644D02*
X002035Y014644D01*
X002026Y014586D02*
X001800Y014586D01*
X001845Y014528D02*
X001887Y014528D01*
X001896Y014356D02*
X001843Y014356D01*
X001794Y014298D02*
X002035Y014298D01*
X002008Y014010D02*
X002078Y014010D01*
X002061Y014701D02*
X001304Y014701D01*
X001257Y014759D02*
X002108Y014759D01*
X002139Y014816D02*
X001932Y014816D01*
X001843Y014816D02*
X001522Y014816D01*
X001433Y014816D02*
X001226Y014816D01*
X001284Y014874D02*
X001362Y014874D01*
X001595Y014874D02*
X001771Y014874D01*
X001765Y014931D02*
X001601Y014931D01*
X001607Y014989D02*
X001759Y014989D01*
X002003Y014874D02*
X002082Y014874D01*
M02*
