G75*
G70*
%OFA0B0*%
%FSLAX24Y24*%
%IPPOS*%
%LPD*%
%AMOC8*
5,1,8,0,0,1.08239X$1,22.5*
%
%ADD10C,0.0160*%
%ADD11C,0.0000*%
D10*
X000200Y003426D02*
X000200Y015305D01*
X000200Y015306D02*
X000199Y015426D01*
X000204Y015546D01*
X000214Y015666D01*
X000230Y015785D01*
X000251Y015903D01*
X000279Y016020D01*
X000311Y016136D01*
X000350Y016250D01*
X000393Y016362D01*
X000442Y016472D01*
X000496Y016579D01*
X000555Y016684D01*
X000619Y016786D01*
X000688Y016884D01*
X000761Y016980D01*
X000839Y017071D01*
X000921Y017159D01*
X001007Y017243D01*
X001097Y017323D01*
X001191Y017398D01*
X001288Y017469D01*
X001389Y017535D01*
X001492Y017596D01*
X001599Y017652D01*
X001707Y017703D01*
X001819Y017749D01*
X001932Y017789D01*
X002047Y017824D01*
X002163Y017854D01*
X002281Y017878D01*
X002400Y017896D01*
X002520Y017909D01*
X002640Y017916D01*
X002639Y017915D02*
X009282Y017915D01*
X009406Y017906D01*
X009529Y017892D01*
X009651Y017871D01*
X009773Y017845D01*
X009892Y017813D01*
X010010Y017775D01*
X010127Y017732D01*
X010241Y017683D01*
X010352Y017629D01*
X010461Y017570D01*
X010567Y017505D01*
X010670Y017436D01*
X010769Y017362D01*
X010865Y017283D01*
X010956Y017199D01*
X011044Y017112D01*
X011128Y017020D01*
X011207Y016925D01*
X011281Y016825D01*
X011351Y016723D01*
X011415Y016617D01*
X011475Y016508D01*
X011529Y016397D01*
X011578Y016283D01*
X011621Y016167D01*
X011659Y016048D01*
X011691Y015929D01*
X011718Y015808D01*
X011738Y015685D01*
X011753Y015562D01*
X011762Y015439D01*
X011765Y015315D01*
X011762Y015191D01*
X011762Y015190D02*
X011762Y003163D01*
X009208Y000187D02*
X002944Y000187D01*
X002798Y000203D01*
X002652Y000226D01*
X002508Y000256D01*
X002365Y000293D01*
X002225Y000337D01*
X002087Y000388D01*
X001951Y000446D01*
X001818Y000510D01*
X001689Y000580D01*
X001563Y000657D01*
X001442Y000740D01*
X001324Y000829D01*
X001211Y000923D01*
X001103Y001023D01*
X000999Y001129D01*
X000901Y001239D01*
X000809Y001353D01*
X000722Y001472D01*
X000641Y001596D01*
X000567Y001723D01*
X000499Y001853D01*
X000437Y001987D01*
X000382Y002124D01*
X000333Y002263D01*
X000292Y002404D01*
X000257Y002547D01*
X000230Y002692D01*
X000209Y002838D01*
X000196Y002985D01*
X000190Y003132D01*
X000192Y003280D01*
X000200Y003427D01*
X009208Y000187D02*
X009339Y000200D01*
X009470Y000220D01*
X009599Y000245D01*
X009727Y000277D01*
X009854Y000315D01*
X009978Y000358D01*
X010100Y000408D01*
X010220Y000463D01*
X010337Y000524D01*
X010451Y000591D01*
X010562Y000663D01*
X010669Y000740D01*
X010772Y000822D01*
X010872Y000909D01*
X010967Y001000D01*
X011058Y001096D01*
X011144Y001196D01*
X011225Y001301D01*
X011301Y001408D01*
X011372Y001520D01*
X011437Y001634D01*
X011497Y001752D01*
X011551Y001872D01*
X011600Y001995D01*
X011642Y002120D01*
X011679Y002247D01*
X011709Y002375D01*
X011734Y002505D01*
X011752Y002636D01*
X011764Y002767D01*
X011769Y002899D01*
X011769Y003031D01*
X011762Y003163D01*
D11*
X001641Y002160D02*
X001643Y002207D01*
X001649Y002253D01*
X001659Y002299D01*
X001672Y002344D01*
X001690Y002387D01*
X001711Y002429D01*
X001735Y002469D01*
X001763Y002506D01*
X001794Y002541D01*
X001828Y002574D01*
X001864Y002603D01*
X001903Y002629D01*
X001944Y002652D01*
X001987Y002671D01*
X002031Y002687D01*
X002076Y002699D01*
X002122Y002707D01*
X002169Y002711D01*
X002215Y002711D01*
X002262Y002707D01*
X002308Y002699D01*
X002353Y002687D01*
X002397Y002671D01*
X002440Y002652D01*
X002481Y002629D01*
X002520Y002603D01*
X002556Y002574D01*
X002590Y002541D01*
X002621Y002506D01*
X002649Y002469D01*
X002673Y002429D01*
X002694Y002387D01*
X002712Y002344D01*
X002725Y002299D01*
X002735Y002253D01*
X002741Y002207D01*
X002743Y002160D01*
X002741Y002113D01*
X002735Y002067D01*
X002725Y002021D01*
X002712Y001976D01*
X002694Y001933D01*
X002673Y001891D01*
X002649Y001851D01*
X002621Y001814D01*
X002590Y001779D01*
X002556Y001746D01*
X002520Y001717D01*
X002481Y001691D01*
X002440Y001668D01*
X002397Y001649D01*
X002353Y001633D01*
X002308Y001621D01*
X002262Y001613D01*
X002215Y001609D01*
X002169Y001609D01*
X002122Y001613D01*
X002076Y001621D01*
X002031Y001633D01*
X001987Y001649D01*
X001944Y001668D01*
X001903Y001691D01*
X001864Y001717D01*
X001828Y001746D01*
X001794Y001779D01*
X001763Y001814D01*
X001735Y001851D01*
X001711Y001891D01*
X001690Y001933D01*
X001672Y001976D01*
X001659Y002021D01*
X001649Y002067D01*
X001643Y002113D01*
X001641Y002160D01*
X009441Y002143D02*
X009443Y002190D01*
X009449Y002236D01*
X009459Y002282D01*
X009472Y002327D01*
X009490Y002370D01*
X009511Y002412D01*
X009535Y002452D01*
X009563Y002489D01*
X009594Y002524D01*
X009628Y002557D01*
X009664Y002586D01*
X009703Y002612D01*
X009744Y002635D01*
X009787Y002654D01*
X009831Y002670D01*
X009876Y002682D01*
X009922Y002690D01*
X009969Y002694D01*
X010015Y002694D01*
X010062Y002690D01*
X010108Y002682D01*
X010153Y002670D01*
X010197Y002654D01*
X010240Y002635D01*
X010281Y002612D01*
X010320Y002586D01*
X010356Y002557D01*
X010390Y002524D01*
X010421Y002489D01*
X010449Y002452D01*
X010473Y002412D01*
X010494Y002370D01*
X010512Y002327D01*
X010525Y002282D01*
X010535Y002236D01*
X010541Y002190D01*
X010543Y002143D01*
X010541Y002096D01*
X010535Y002050D01*
X010525Y002004D01*
X010512Y001959D01*
X010494Y001916D01*
X010473Y001874D01*
X010449Y001834D01*
X010421Y001797D01*
X010390Y001762D01*
X010356Y001729D01*
X010320Y001700D01*
X010281Y001674D01*
X010240Y001651D01*
X010197Y001632D01*
X010153Y001616D01*
X010108Y001604D01*
X010062Y001596D01*
X010015Y001592D01*
X009969Y001592D01*
X009922Y001596D01*
X009876Y001604D01*
X009831Y001616D01*
X009787Y001632D01*
X009744Y001651D01*
X009703Y001674D01*
X009664Y001700D01*
X009628Y001729D01*
X009594Y001762D01*
X009563Y001797D01*
X009535Y001834D01*
X009511Y001874D01*
X009490Y001916D01*
X009472Y001959D01*
X009459Y002004D01*
X009449Y002050D01*
X009443Y002096D01*
X009441Y002143D01*
X007941Y016926D02*
X007943Y016973D01*
X007949Y017019D01*
X007959Y017065D01*
X007972Y017110D01*
X007990Y017153D01*
X008011Y017195D01*
X008035Y017235D01*
X008063Y017272D01*
X008094Y017307D01*
X008128Y017340D01*
X008164Y017369D01*
X008203Y017395D01*
X008244Y017418D01*
X008287Y017437D01*
X008331Y017453D01*
X008376Y017465D01*
X008422Y017473D01*
X008469Y017477D01*
X008515Y017477D01*
X008562Y017473D01*
X008608Y017465D01*
X008653Y017453D01*
X008697Y017437D01*
X008740Y017418D01*
X008781Y017395D01*
X008820Y017369D01*
X008856Y017340D01*
X008890Y017307D01*
X008921Y017272D01*
X008949Y017235D01*
X008973Y017195D01*
X008994Y017153D01*
X009012Y017110D01*
X009025Y017065D01*
X009035Y017019D01*
X009041Y016973D01*
X009043Y016926D01*
X009041Y016879D01*
X009035Y016833D01*
X009025Y016787D01*
X009012Y016742D01*
X008994Y016699D01*
X008973Y016657D01*
X008949Y016617D01*
X008921Y016580D01*
X008890Y016545D01*
X008856Y016512D01*
X008820Y016483D01*
X008781Y016457D01*
X008740Y016434D01*
X008697Y016415D01*
X008653Y016399D01*
X008608Y016387D01*
X008562Y016379D01*
X008515Y016375D01*
X008469Y016375D01*
X008422Y016379D01*
X008376Y016387D01*
X008331Y016399D01*
X008287Y016415D01*
X008244Y016434D01*
X008203Y016457D01*
X008164Y016483D01*
X008128Y016512D01*
X008094Y016545D01*
X008063Y016580D01*
X008035Y016617D01*
X008011Y016657D01*
X007990Y016699D01*
X007972Y016742D01*
X007959Y016787D01*
X007949Y016833D01*
X007943Y016879D01*
X007941Y016926D01*
X002941Y016926D02*
X002943Y016973D01*
X002949Y017019D01*
X002959Y017065D01*
X002972Y017110D01*
X002990Y017153D01*
X003011Y017195D01*
X003035Y017235D01*
X003063Y017272D01*
X003094Y017307D01*
X003128Y017340D01*
X003164Y017369D01*
X003203Y017395D01*
X003244Y017418D01*
X003287Y017437D01*
X003331Y017453D01*
X003376Y017465D01*
X003422Y017473D01*
X003469Y017477D01*
X003515Y017477D01*
X003562Y017473D01*
X003608Y017465D01*
X003653Y017453D01*
X003697Y017437D01*
X003740Y017418D01*
X003781Y017395D01*
X003820Y017369D01*
X003856Y017340D01*
X003890Y017307D01*
X003921Y017272D01*
X003949Y017235D01*
X003973Y017195D01*
X003994Y017153D01*
X004012Y017110D01*
X004025Y017065D01*
X004035Y017019D01*
X004041Y016973D01*
X004043Y016926D01*
X004041Y016879D01*
X004035Y016833D01*
X004025Y016787D01*
X004012Y016742D01*
X003994Y016699D01*
X003973Y016657D01*
X003949Y016617D01*
X003921Y016580D01*
X003890Y016545D01*
X003856Y016512D01*
X003820Y016483D01*
X003781Y016457D01*
X003740Y016434D01*
X003697Y016415D01*
X003653Y016399D01*
X003608Y016387D01*
X003562Y016379D01*
X003515Y016375D01*
X003469Y016375D01*
X003422Y016379D01*
X003376Y016387D01*
X003331Y016399D01*
X003287Y016415D01*
X003244Y016434D01*
X003203Y016457D01*
X003164Y016483D01*
X003128Y016512D01*
X003094Y016545D01*
X003063Y016580D01*
X003035Y016617D01*
X003011Y016657D01*
X002990Y016699D01*
X002972Y016742D01*
X002959Y016787D01*
X002949Y016833D01*
X002943Y016879D01*
X002941Y016926D01*
M02*
