%
M48
M72
T01C0.0276
T02C0.0320
T03C0.0354
T04C0.0400
T05C0.1102
%
T01
X2200Y4023
X2200Y5023
X4216Y14023
X6184Y14023
T02
X6700Y11523
X6700Y10523
X6700Y9523
X6700Y8523
X7700Y4523
X8700Y4523
X3700Y8523
X3700Y9523
X3700Y10523
X3700Y11523
T03
X3200Y13023
X3200Y15023
X7200Y15023
X7200Y13023
T04
X8250Y11523
X8150Y10523
X8250Y9523
X8150Y8523
X6200Y6523
X6200Y5523
X5200Y5423
X5200Y6423
X4200Y6523
X4200Y5523
X3920Y3913
X3920Y2133
X6480Y2133
X6480Y3913
X2250Y9523
X2150Y8523
X2150Y10523
X2250Y11523
T05
X2200Y1523
X9200Y1523
X8200Y16523
X3200Y16523
M30
